<svg xmlns="http://www.w3.org/2000/svg">
<g id="home-icon" stroke="none" stroke-width="1" fill="none">
  <path fill-rule="evenodd" clip-rule="evenodd" d="M12.6337 0.226673C12.265 -0.07556 11.7343 -0.07556 11.3657 0.226687L0.632306 9.02667C0.305593 9.29453 0.182466 9.73887 0.324706 10.1367C0.466939 10.5345 0.843839 10.8 1.26633 10.8H2.82073L3.61547 19.4852C3.69393 20.3433 4.41353 21 5.2752 21H10.3333C10.7015 21 11 20.7015 11 20.3333V13.8769C11 13.5087 11.2985 13.2102 11.6667 13.2102H12.3333C12.7015 13.2102 13 13.5087 13 13.8769V20.3333C13 20.7015 13.2985 21 13.6667 21H18.7249C19.5865 21 20.3061 20.3433 20.3847 19.4852L21.1794 10.8H22.7334C23.1559 10.8 23.5328 10.5345 23.675 10.1367C23.8173 9.7388 23.6941 9.29453 23.3674 9.02667L12.6337 0.226673Z" fill="currentColor"/>
</g>

<g id="puns-icon" fill="none">
<path d="M8.4415 5.84078e-05C8.38525 5.84078e-05 8.32877 0.00177173 8.2719 0.00542661C7.36303 0.0633906 6.44183 0.664103 6.11437 1.54373C4.16861 6.77088 3.19704 8.90288 2.60226 14.2716C3.43792 15.042 4.40857 15.7821 5.47191 16.4488L9.2642 5.2291L10.2743 5.56992L6.41053 17.0038C7.5247 17.6249 8.71939 18.1593 9.9512 18.5617L14.2575 7.05282L15.2569 7.42573L10.9774 18.8633C12.0884 19.1543 13.2163 19.3316 14.3342 19.3702L18.8637 9.18007L19.8399 9.61375L15.5068 19.3595C16.7529 19.2888 17.9742 19.0301 19.1296 18.544C21.6033 15.4691 23.2775 12.2745 23.9552 8.6821C24.246 7.14065 23.1121 5.64832 20.8588 5.55204L20.5073 5.53594L20.3823 5.20757C19.8998 3.92905 19.2545 3.48904 18.5835 3.35329C17.9124 3.2176 17.1405 3.44095 16.558 3.77452L15.8119 4.20111L15.7602 3.3445C15.7036 2.40816 15.1695 1.65429 14.3717 1.30999C13.5739 0.965631 12.4835 1.0112 11.2415 1.87569L10.6455 2.28972L10.4278 1.5973C10.0556 0.411403 9.28521 -0.000855279 8.44156 1.33176e-06L8.4415 5.84078e-05ZM2.98408 7.05819C1.14882 9.63396 -0.188354 13.4095 0.0217443 16.8414C1.59449 18.0886 3.14039 18.7655 4.59394 18.8652C5.4023 18.9205 6.18953 18.8032 6.95848 18.4975C4.9343 17.5132 3.11172 16.2399 1.67067 14.8695L1.47976 14.6892L1.50831 14.4268C1.83919 11.3065 2.30473 9.20143 2.9842 7.05819H2.98408Z" fill="currentColor"/>
</g>

<g id="polls-icon" fill="none">
<path d="M12 0C10.3431 0 9 1.34315 9 3V21C9 22.6569 10.3431 24 12 24C13.6569 24 15 22.6569 15 21V3C15 1.34315 13.6569 0 12 0Z" fill="currentColor"/>
<path d="M3 12C1.34315 12 9.53674e-07 13.3431 9.53674e-07 15V21C9.53674e-07 22.6569 1.34315 24 3 24C4.65686 24 6 22.6569 6 21V15C6 13.3431 4.65686 12 3 12Z" fill="currentColor"/>
<path d="M21 6C19.3431 6 18 7.34315 18 9V21C18 22.6569 19.3431 24 21 24C22.6569 24 24 22.6569 24 21V9C24 7.34315 22.6569 6 21 6Z" fill="currentColor"/>
</g>

</svg>
