<svg width="138" height="40" viewBox="0 0 138 40" fill="none" xmlns="http://www.w3.org/2000/svg">
<path d="M137.106 35.3871C137.106 37.5188 135.351 39.2454 133.18 39.2454H4.69734C2.52743 39.2454 0.766113 37.5188 0.766113 35.3871V4.61824C0.766113 2.4876 2.52743 0.754883 4.69734 0.754883H133.179C135.351 0.754883 137.105 2.4876 137.105 4.61824L137.106 35.3871Z" fill="black"/>
<path d="M132.766 0.801242C135.13 0.801242 137.054 2.68499 137.054 4.99999V35C137.054 37.315 135.13 39.1988 132.766 39.1988H5.10656C2.74231 39.1988 0.81848 37.315 0.81848 35V4.99999C0.81848 2.68499 2.74231 0.801242 5.10656 0.801242H132.766ZM132.766 -7.33436e-06H5.10656C2.29933 -7.33436e-06 0.000183105 2.25124 0.000183105 4.99999V35C0.000183105 37.7487 2.29933 40 5.10656 40H132.766C135.573 40 137.872 37.7487 137.872 35V4.99999C137.872 2.25124 135.573 -7.33436e-06 132.766 -7.33436e-06Z" fill="#A6A6A6"/>
<path d="M30.769 19.784C30.7393 16.561 33.4641 14.993 33.5887 14.92C32.0456 12.717 29.6537 12.416 28.8132 12.392C26.8044 12.185 24.8558 13.569 23.8325 13.569C22.7887 13.569 21.2129 12.412 19.5145 12.446C17.329 12.479 15.2844 13.718 14.163 15.642C11.8488 19.565 13.5748 25.33 15.792 28.501C16.9011 30.054 18.1971 31.788 19.8934 31.727C21.553 31.66 22.1729 30.691 24.1756 30.691C26.1599 30.691 26.7421 31.727 28.4721 31.688C30.2532 31.66 31.3746 30.128 32.4449 28.561C33.7266 26.781 34.2413 25.028 34.2617 24.938C34.2199 24.924 30.8027 23.647 30.769 19.784Z" fill="white"/>
<path d="M27.5009 10.306C28.3935 9.21304 29.0042 7.72604 28.8347 6.21704C27.5428 6.27304 25.9271 7.09204 24.9967 8.16104C24.1736 9.10304 23.4382 10.647 23.6282 12.099C25.0794 12.205 26.5695 11.382 27.5009 10.306Z" fill="white"/>
<path d="M50.0938 10.0089C50.0938 11.1859 49.7333 12.0719 49.0133 12.6669C48.3464 13.2159 47.3987 13.4909 46.1711 13.4909C45.5624 13.4909 45.0416 13.4649 44.6055 13.4129V6.98195C45.1743 6.89195 45.7871 6.84595 46.4489 6.84595C47.6182 6.84595 48.4996 7.09495 49.094 7.59295C49.7599 8.15595 50.0938 8.96095 50.0938 10.0089ZM48.9653 10.0379C48.9653 9.27495 48.759 8.68995 48.3464 8.28195C47.9338 7.87495 47.3313 7.67095 46.5377 7.67095C46.2007 7.67095 45.9137 7.69295 45.6758 7.73895V12.6279C45.8075 12.6479 46.0485 12.6569 46.3988 12.6569C47.2179 12.6569 47.8501 12.4339 48.2953 11.9879C48.7406 11.5419 48.9653 10.8919 48.9653 10.0379Z" fill="white"/>
<path d="M56.0775 11.037C56.0775 11.762 55.8661 12.356 55.4433 12.822C55.0001 13.301 54.4129 13.54 53.6796 13.54C52.9729 13.54 52.4101 13.311 51.9904 12.851C51.5717 12.392 51.3623 11.813 51.3623 11.115C51.3623 10.385 51.5778 9.78605 52.0108 9.32105C52.4438 8.85605 53.026 8.62305 53.7592 8.62305C54.466 8.62305 55.0338 8.85205 55.4638 9.31105C55.8723 9.75705 56.0775 10.333 56.0775 11.037ZM54.9674 11.071C54.9674 10.636 54.8714 10.263 54.6804 9.95205C54.4558 9.57605 54.1361 9.38805 53.7204 9.38805C53.2905 9.38805 52.9637 9.57605 52.739 9.95205C52.547 10.263 52.452 10.642 52.452 11.09C52.452 11.525 52.548 11.898 52.739 12.209C52.9708 12.585 53.2935 12.773 53.7102 12.773C54.1187 12.773 54.4394 12.582 54.6702 12.199C54.8683 11.882 54.9674 11.506 54.9674 11.071Z" fill="white"/>
<path d="M64.1006 8.71899L62.5942 13.433H61.6138L60.9898 11.386C60.8315 10.875 60.7028 10.367 60.6027 9.86299H60.5833C60.4903 10.381 60.3617 10.888 60.1962 11.386L59.5334 13.433H58.5418L57.1252 8.71899H58.2252L58.7695 10.96C58.9012 11.49 59.0095 11.995 59.0963 12.473H59.1157C59.1954 12.079 59.3271 11.577 59.513 10.97L60.1962 8.71999H61.0684L61.723 10.922C61.8813 11.459 62.01 11.976 62.1091 12.474H62.1387C62.2112 11.989 62.3205 11.472 62.4655 10.922L63.0497 8.71999H64.1006V8.71899Z" fill="white"/>
<path d="M69.6495 13.4331H68.5792V10.7331C68.5792 9.90112 68.2565 9.48512 67.609 9.48512C67.2914 9.48512 67.0351 9.59912 66.8359 9.82812C66.6388 10.0571 66.5387 10.3271 66.5387 10.6361V13.4321H65.4684V10.0661C65.4684 9.65212 65.4552 9.20312 65.4296 8.71712H66.3702L66.4203 9.45412H66.4499C66.5745 9.22512 66.7603 9.03612 67.0044 8.88512C67.2945 8.70912 67.6192 8.62012 67.9746 8.62012C68.424 8.62012 68.7978 8.76212 69.095 9.04712C69.4647 9.39612 69.6495 9.91712 69.6495 10.6091V13.4331Z" fill="white"/>
<path d="M72.6008 13.4329H71.5315V6.55591H72.6008V13.4329Z" fill="white"/>
<path d="M78.902 11.037C78.902 11.762 78.6906 12.356 78.2678 12.822C77.8246 13.301 77.2363 13.54 76.504 13.54C75.7963 13.54 75.2336 13.311 74.8149 12.851C74.3961 12.392 74.1868 11.813 74.1868 11.115C74.1868 10.385 74.4023 9.78605 74.8353 9.32105C75.2683 8.85605 75.8504 8.62305 76.5827 8.62305C77.2904 8.62305 77.8572 8.85205 78.2882 9.31105C78.6967 9.75705 78.902 10.333 78.902 11.037ZM77.7909 11.071C77.7909 10.636 77.6949 10.263 77.5039 9.95205C77.2802 9.57605 76.9595 9.38805 76.5449 9.38805C76.1139 9.38805 75.7871 9.57605 75.5634 9.95205C75.3714 10.263 75.2765 10.642 75.2765 11.09C75.2765 11.525 75.3725 11.898 75.5634 12.209C75.7953 12.585 76.118 12.773 76.5347 12.773C76.9432 12.773 77.2629 12.582 77.4937 12.199C77.6928 11.882 77.7909 11.506 77.7909 11.071Z" fill="white"/>
<path d="M84.0821 13.433H83.1211L83.0414 12.89H83.0118C82.6829 13.323 82.2142 13.54 81.6055 13.54C81.151 13.54 80.7834 13.397 80.5066 13.113C80.2554 12.855 80.1298 12.534 80.1298 12.153C80.1298 11.577 80.3749 11.138 80.8681 10.834C81.3604 10.53 82.0528 10.381 82.9444 10.388V10.3C82.9444 9.67905 82.6115 9.36905 81.9446 9.36905C81.4697 9.36905 81.051 9.48605 80.6894 9.71805L80.4719 9.03005C80.9192 8.75905 81.4717 8.62305 82.1233 8.62305C83.3815 8.62305 84.0126 9.27305 84.0126 10.573V12.309C84.0126 12.78 84.0361 13.155 84.0821 13.433ZM82.9709 11.813V11.086C81.7904 11.066 81.2001 11.383 81.2001 12.036C81.2001 12.282 81.2675 12.466 81.4053 12.589C81.5432 12.712 81.7189 12.773 81.9282 12.773C82.1631 12.773 82.3827 12.7 82.5829 12.555C82.7841 12.409 82.9076 12.224 82.9536 11.997C82.9648 11.946 82.9709 11.884 82.9709 11.813Z" fill="white"/>
<path d="M90.1639 13.4329H89.2141L89.164 12.6759H89.1344C88.8311 13.2519 88.3143 13.5399 87.5882 13.5399C87.0081 13.5399 86.525 13.3169 86.1421 12.8709C85.7591 12.4249 85.5681 11.8459 85.5681 11.1349C85.5681 10.3719 85.7754 9.75391 86.1921 9.28191C86.5955 8.84191 87.0898 8.62191 87.6781 8.62191C88.3245 8.62191 88.777 8.83491 89.0343 9.26191H89.0547V6.55591H90.1261V12.1629C90.1261 12.6219 90.1383 13.0449 90.1639 13.4329ZM89.0547 11.4449V10.6589C89.0547 10.5229 89.0445 10.4129 89.0251 10.3289C88.9649 10.0769 88.8352 9.86491 88.6381 9.69391C88.4389 9.52291 88.1989 9.43691 87.9221 9.43691C87.5228 9.43691 87.2103 9.59191 86.9805 9.90291C86.7528 10.2139 86.6374 10.6109 86.6374 11.0959C86.6374 11.5619 86.7467 11.9399 86.9662 12.2309C87.1981 12.5409 87.5106 12.6959 87.9017 12.6959C88.253 12.6959 88.5339 12.5669 88.7473 12.3079C88.9536 12.0689 89.0547 11.7809 89.0547 11.4449Z" fill="white"/>
<path d="M99.3176 11.037C99.3176 11.762 99.1062 12.356 98.6834 12.822C98.2402 13.301 97.654 13.54 96.9197 13.54C96.214 13.54 95.6513 13.311 95.2305 12.851C94.8118 12.392 94.6024 11.813 94.6024 11.115C94.6024 10.385 94.8179 9.78605 95.2509 9.32105C95.6839 8.85605 96.2661 8.62305 97.0004 8.62305C97.7061 8.62305 98.2749 8.85205 98.7039 9.31105C99.1124 9.75705 99.3176 10.333 99.3176 11.037ZM98.2085 11.071C98.2085 10.636 98.1125 10.263 97.9216 9.95205C97.6959 9.57605 97.3772 9.38805 96.9605 9.38805C96.5316 9.38805 96.2048 9.57605 95.9791 9.95205C95.7871 10.263 95.6921 10.642 95.6921 11.09C95.6921 11.525 95.7881 11.898 95.9791 12.209C96.2109 12.585 96.5337 12.773 96.9503 12.773C97.3588 12.773 97.6805 12.582 97.9114 12.199C98.1085 11.882 98.2085 11.506 98.2085 11.071Z" fill="white"/>
<path d="M105.073 13.4331H104.003V10.7331C104.003 9.90112 103.681 9.48512 103.032 9.48512C102.714 9.48512 102.458 9.59912 102.26 9.82812C102.062 10.0571 101.963 10.3271 101.963 10.6361V13.4321H100.891V10.0661C100.891 9.65212 100.879 9.20312 100.854 8.71712H101.793L101.843 9.45412H101.873C101.998 9.22512 102.184 9.03612 102.427 8.88512C102.718 8.70912 103.042 8.62012 103.399 8.62012C103.847 8.62012 104.221 8.76212 104.518 9.04712C104.889 9.39612 105.073 9.91712 105.073 10.6091V13.4331Z" fill="white"/>
<path d="M112.276 9.50417H111.097V11.7942C111.097 12.3762 111.306 12.6672 111.721 12.6672C111.913 12.6672 112.072 12.6512 112.198 12.6182L112.226 13.4132C112.014 13.4912 111.736 13.5302 111.394 13.5302C110.971 13.5302 110.643 13.4042 110.405 13.1522C110.166 12.9002 110.047 12.4762 110.047 11.8812V9.50417H109.344V8.71917H110.047V7.85517L111.096 7.54517V8.71817H112.275V9.50417H112.276Z" fill="white"/>
<path d="M117.941 13.4329H116.87V10.7529C116.87 9.90791 116.547 9.48491 115.901 9.48491C115.405 9.48491 115.065 9.72991 114.88 10.2199C114.848 10.3229 114.83 10.4489 114.83 10.5969V13.4319H113.76V6.55591H114.83V9.39691H114.85C115.187 8.87991 115.67 8.62191 116.296 8.62191C116.739 8.62191 117.106 8.76391 117.397 9.04891C117.76 9.40391 117.941 9.93191 117.941 10.6299V13.4329Z" fill="white"/>
<path d="M123.786 10.853C123.786 11.041 123.772 11.199 123.747 11.328H120.537C120.551 11.794 120.704 12.149 121.001 12.395C121.273 12.615 121.623 12.725 122.052 12.725C122.527 12.725 122.96 12.651 123.35 12.502L123.518 13.23C123.061 13.424 122.524 13.521 121.902 13.521C121.157 13.521 120.569 13.306 120.145 12.876C119.718 12.446 119.506 11.869 119.506 11.145C119.506 10.434 119.703 9.84201 120.101 9.37001C120.515 8.86601 121.076 8.61401 121.784 8.61401C122.476 8.61401 123.002 8.86601 123.357 9.37001C123.644 9.77001 123.786 10.265 123.786 10.853ZM122.765 10.582C122.773 10.271 122.703 10.003 122.558 9.77701C122.372 9.48601 122.089 9.34001 121.706 9.34001C121.357 9.34001 121.072 9.48201 120.854 9.76701C120.677 9.99401 120.571 10.265 120.537 10.582H122.765Z" fill="white"/>
<path d="M54.7864 31.504H52.4671L51.1966 27.595H46.7806L45.5704 31.504H43.3124L47.6875 18.196H50.3898L54.7864 31.504ZM50.8137 25.955L49.6647 22.48C49.5432 22.125 49.3154 21.289 48.9794 19.973H48.9386C48.8048 20.539 48.5893 21.375 48.2931 22.48L47.1646 25.955H50.8137Z" fill="white"/>
<path d="M66.0378 26.5879C66.0378 28.2199 65.5874 29.5099 64.6866 30.4569C63.8798 31.2999 62.8779 31.7209 61.682 31.7209C60.3911 31.7209 59.4638 31.2669 58.8991 30.3589H58.8582V35.4139H56.6808V25.0669C56.6808 24.0409 56.6533 22.9879 56.6002 21.9079H58.5151L58.6366 23.4289H58.6774C59.4036 22.2829 60.5055 21.7109 61.9843 21.7109C63.1404 21.7109 64.1055 22.1579 64.8776 23.0529C65.6517 23.9489 66.0378 25.1269 66.0378 26.5879ZM63.8196 26.6659C63.8196 25.7319 63.6051 24.9619 63.1741 24.3559C62.7033 23.7239 62.0711 23.4079 61.2786 23.4079C60.7414 23.4079 60.2533 23.5839 59.8172 23.9309C59.3801 24.2809 59.0941 24.7379 58.9603 25.3039C58.8929 25.5679 58.8592 25.7839 58.8592 25.9539V27.5539C58.8592 28.2519 59.0778 28.8409 59.5149 29.3219C59.952 29.8029 60.5198 30.0429 61.2184 30.0429C62.0385 30.0429 62.6768 29.7329 63.1333 29.1149C63.5908 28.4959 63.8196 27.6799 63.8196 26.6659Z" fill="white"/>
<path d="M77.3098 26.5879C77.3098 28.2199 76.8594 29.5099 75.9576 30.4569C75.1518 31.2999 74.1499 31.7209 72.954 31.7209C71.6631 31.7209 70.7358 31.2669 70.1721 30.3589H70.1312V35.4139H67.9539V25.0669C67.9539 24.0409 67.9263 22.9879 67.8732 21.9079H69.7881L69.9096 23.4289H69.9504C70.6755 22.2829 71.7775 21.7109 73.2573 21.7109C74.4124 21.7109 75.3775 22.1579 76.1516 23.0529C76.9227 23.9489 77.3098 25.1269 77.3098 26.5879ZM75.0916 26.6659C75.0916 25.7319 74.8761 24.9619 74.4451 24.3559C73.9743 23.7239 73.3441 23.4079 72.5506 23.4079C72.0124 23.4079 71.5253 23.5839 71.0882 23.9309C70.651 24.2809 70.3661 24.7379 70.2323 25.3039C70.1659 25.5679 70.1312 25.7839 70.1312 25.9539V27.5539C70.1312 28.2519 70.3498 28.8409 70.7848 29.3219C71.2219 29.8019 71.7898 30.0429 72.4904 30.0429C73.3104 30.0429 73.9487 29.7329 74.4053 29.1149C74.8628 28.4959 75.0916 27.6799 75.0916 26.6659Z" fill="white"/>
<path d="M89.9125 27.772C89.9125 28.904 89.5111 29.825 88.7053 30.536C87.8199 31.313 86.5872 31.701 85.0032 31.701C83.5408 31.701 82.3683 31.425 81.4808 30.872L81.9853 29.095C82.9413 29.661 83.9901 29.945 85.1329 29.945C85.953 29.945 86.5913 29.763 87.0499 29.401C87.5064 29.039 87.7341 28.553 87.7341 27.947C87.7341 27.407 87.5462 26.952 87.1693 26.583C86.7945 26.214 86.1685 25.871 85.2943 25.554C82.9147 24.685 81.7259 23.412 81.7259 21.738C81.7259 20.644 82.1426 19.747 82.977 19.049C83.8083 18.35 84.9174 18.001 86.3043 18.001C87.5411 18.001 88.5685 18.212 89.3886 18.633L88.8442 20.371C88.0783 19.963 87.2122 19.759 86.243 19.759C85.4771 19.759 84.8786 19.944 84.4497 20.312C84.0871 20.641 83.9053 21.042 83.9053 21.517C83.9053 22.043 84.1127 22.478 84.5293 22.82C84.8919 23.136 85.5506 23.478 86.5065 23.847C87.6759 24.308 88.5348 24.847 89.0873 25.465C89.6378 26.081 89.9125 26.852 89.9125 27.772Z" fill="white"/>
<path d="M97.1114 23.5081H94.7114V28.1671C94.7114 29.3521 95.1342 29.9441 95.9819 29.9441C96.371 29.9441 96.6937 29.9111 96.949 29.8451L97.0093 31.4641C96.5803 31.6211 96.0156 31.7001 95.316 31.7001C94.4561 31.7001 93.7841 31.4431 93.299 30.9301C92.8159 30.4161 92.5728 29.5541 92.5728 28.3431V23.5061H91.1431V21.9061H92.5728V20.1491L94.7114 19.5171V21.9061H97.1114V23.5081Z" fill="white"/>
<path d="M107.94 26.6269C107.94 28.1019 107.509 29.3129 106.649 30.2599C105.748 31.2349 104.551 31.7209 103.059 31.7209C101.621 31.7209 100.476 31.2539 99.622 30.3199C98.7682 29.3859 98.3413 28.2069 98.3413 26.7859C98.3413 25.2989 98.7805 24.0809 99.6618 23.1339C100.541 22.1859 101.728 21.7119 103.22 21.7119C104.658 21.7119 105.815 22.1789 106.688 23.1139C107.524 24.0209 107.94 25.1919 107.94 26.6269ZM105.681 26.6959C105.681 25.8109 105.488 25.0519 105.097 24.4189C104.641 23.6529 103.988 23.2709 103.142 23.2709C102.267 23.2709 101.602 23.6539 101.146 24.4189C100.755 25.0529 100.562 25.8239 100.562 26.7359C100.562 27.6209 100.755 28.3799 101.146 29.0119C101.617 29.7779 102.274 30.1599 103.123 30.1599C103.954 30.1599 104.607 29.7699 105.078 28.9919C105.479 28.3469 105.681 27.5799 105.681 26.6959Z" fill="white"/>
<path d="M115.017 23.7829C114.802 23.7439 114.572 23.7239 114.331 23.7239C113.565 23.7239 112.973 24.0069 112.556 24.5739C112.193 25.0739 112.012 25.7059 112.012 26.4689V31.5039H109.835L109.856 24.9299C109.856 23.8239 109.828 22.8169 109.774 21.9089H111.671L111.75 23.7449H111.81C112.04 23.1139 112.403 22.6059 112.899 22.2249C113.384 21.8819 113.908 21.7109 114.473 21.7109C114.674 21.7109 114.856 21.7249 115.017 21.7499V23.7829Z" fill="white"/>
<path d="M124.755 26.2521C124.755 26.6341 124.73 26.9561 124.676 27.2191H118.143C118.169 28.1671 118.485 28.8921 119.091 29.3921C119.642 29.8391 120.354 30.0631 121.228 30.0631C122.195 30.0631 123.077 29.9121 123.871 29.6091L124.212 31.0891C123.285 31.4851 122.19 31.6821 120.926 31.6821C119.407 31.6821 118.214 31.2441 117.346 30.3691C116.48 29.4941 116.046 28.3191 116.046 26.8451C116.046 25.3981 116.449 24.1931 117.257 23.2321C118.103 22.2061 119.245 21.6931 120.683 21.6931C122.096 21.6931 123.165 22.2061 123.891 23.2321C124.466 24.0471 124.755 25.0551 124.755 26.2521ZM122.679 25.6991C122.693 25.0671 122.551 24.5211 122.256 24.0601C121.879 23.4671 121.3 23.1711 120.521 23.1711C119.809 23.1711 119.23 23.4601 118.788 24.0401C118.425 24.5011 118.21 25.0541 118.143 25.6981H122.679V25.6991Z" fill="white"/>
</svg>
