<svg width="138" height="40" viewBox="0 0 138 40" fill="none" xmlns="http://www.w3.org/2000/svg">
<path d="M132.889 40H5.11111C2.30128 40 0 37.7487 0 35V4.99998C0 2.25123 2.30128 -2.6231e-05 5.11111 -2.6231e-05H132.889C135.699 -2.6231e-05 138 2.25123 138 4.99998V35C138 37.7487 135.699 40 132.889 40Z" fill="black"/>
<path d="M132.889 0.801223C135.255 0.801223 137.181 2.68498 137.181 4.99998V35C137.181 37.315 135.255 39.1987 132.889 39.1987H5.11111C2.74467 39.1987 0.819055 37.315 0.819055 35V4.99998C0.819055 2.68498 2.74467 0.801223 5.11111 0.801223H132.889ZM132.889 -2.6231e-05H5.11111C2.30128 -2.6231e-05 0 2.25123 0 4.99998V35C0 37.7487 2.30128 40 5.11111 40H132.889C135.699 40 138 37.7487 138 35V4.99998C138 2.25123 135.699 -2.6231e-05 132.889 -2.6231e-05Z" fill="#A6A6A6"/>
<path d="M10.667 7.53867C10.3668 7.84618 10.193 8.32492 10.193 8.94493V31.0599C10.193 31.6799 10.3668 32.1587 10.667 32.4662L10.7412 32.5337L23.409 20.1462V19.8537L10.7412 7.46618L10.667 7.53867Z" fill="url(#paint0_linear_2372_7920)"/>
<path d="M27.6266 24.2773L23.4087 20.1461V19.8536L27.6317 15.7223L27.7263 15.7761L32.7275 18.5598C34.1548 19.3498 34.1548 20.6498 32.7275 21.4448L27.7263 24.2236L27.6266 24.2773Z" fill="url(#paint1_linear_2372_7920)"/>
<path d="M27.7266 24.2237L23.409 20L10.667 32.4662C11.141 32.9537 11.9141 33.0125 12.7932 32.525L27.7266 24.2237Z" fill="url(#paint2_linear_2372_7920)"/>
<path d="M27.7266 15.7762L12.7932 7.475C11.9141 6.9925 11.141 7.05124 10.667 7.53874L23.409 20L27.7266 15.7762Z" fill="url(#paint3_linear_2372_7920)"/>
<path d="M48.4714 10.2437C48.4714 11.0787 48.2158 11.7475 47.7124 12.2462C47.1336 12.8375 46.3797 13.135 45.4558 13.135C44.5729 13.135 43.819 12.8325 43.2005 12.2362C42.5808 11.6312 42.2716 10.8887 42.2716 9.99999C42.2716 9.11124 42.5808 8.36874 43.2005 7.76874C43.819 7.16749 44.5729 6.86499 45.4558 6.86499C45.8954 6.86499 46.3145 6.95374 46.7144 7.11874C47.1131 7.28499 47.4377 7.50999 47.6728 7.78749L47.1387 8.31499C46.7285 7.84124 46.1701 7.60749 45.4558 7.60749C44.8118 7.60749 44.2534 7.82749 43.7794 8.27124C43.3104 8.71624 43.0753 9.29249 43.0753 9.99999C43.0753 10.7075 43.3104 11.2887 43.7794 11.7337C44.2534 12.1725 44.8118 12.3975 45.4558 12.3975C46.1394 12.3975 46.7144 12.1725 47.1681 11.7287C47.4671 11.435 47.637 11.03 47.6817 10.5125H45.4558V9.78999H48.4254C48.4612 9.94624 48.4714 10.0975 48.4714 10.2437Z" fill="white" stroke="white" stroke-width="0.123077" stroke-miterlimit="10"/>
<path d="M53.1826 7.73869H50.3932V9.63869H52.9079V10.3612H50.3932V12.2612H53.1826V12.9974H49.6035V7.00244H53.1826V7.73869Z" fill="white" stroke="white" stroke-width="0.123077" stroke-miterlimit="10"/>
<path d="M56.5076 12.9974H55.7179V7.73869H54.007V7.00244H58.2198V7.73869H56.5076V12.9974Z" fill="white" stroke="white" stroke-width="0.123077" stroke-miterlimit="10"/>
<path d="M61.2683 12.9974V7.00244H62.0574V12.9974H61.2683Z" fill="white" stroke="white" stroke-width="0.123077" stroke-miterlimit="10"/>
<path d="M65.5517 12.9974H64.7685V7.73869H63.0511V7.00244H67.2691V7.73869H65.5517V12.9974Z" fill="white" stroke="white" stroke-width="0.123077" stroke-miterlimit="10"/>
<path d="M75.2447 12.2262C74.6403 12.8325 73.8915 13.135 72.9983 13.135C72.1001 13.135 71.3513 12.8325 70.7469 12.2262C70.1438 11.6212 69.8435 10.8787 69.8435 9.99999C69.8435 9.12124 70.1438 8.37874 70.7469 7.77374C71.3513 7.16749 72.1001 6.86499 72.9983 6.86499C73.8864 6.86499 74.6352 7.16749 75.2396 7.77874C75.8478 8.38874 76.1481 9.12624 76.1481 9.99999C76.1481 10.8787 75.8478 11.6212 75.2447 12.2262ZM71.3308 11.7237C71.7857 12.1725 72.339 12.3975 72.9983 12.3975C73.6526 12.3975 74.211 12.1725 74.6607 11.7237C75.1143 11.275 75.3443 10.6987 75.3443 9.99999C75.3443 9.30124 75.1143 8.72499 74.6607 8.27624C74.211 7.82749 73.6526 7.60249 72.9983 7.60249C72.339 7.60249 71.7857 7.82749 71.3308 8.27624C70.8772 8.72499 70.6472 9.30124 70.6472 9.99999C70.6472 10.6987 70.8772 11.275 71.3308 11.7237Z" fill="white" stroke="white" stroke-width="0.123077" stroke-miterlimit="10"/>
<path d="M77.2559 12.9974V7.00244H78.2142L81.194 11.6649H81.2285L81.194 10.5124V7.00244H81.9824V12.9974H81.1595L78.0391 8.10494H78.0046L78.0391 9.26244V12.9974H77.2559Z" fill="white" stroke="white" stroke-width="0.123077" stroke-miterlimit="10"/>
<path d="M69.6492 21.7524C67.2483 21.7524 65.2869 23.5399 65.2869 26.0061C65.2869 28.4524 67.2483 30.2586 69.6492 30.2586C72.0553 30.2586 74.0167 28.4524 74.0167 26.0061C74.0167 23.5399 72.0553 21.7524 69.6492 21.7524ZM69.6492 28.5836C68.3319 28.5836 67.1985 27.5199 67.1985 26.0061C67.1985 24.4724 68.3319 23.4274 69.6492 23.4274C70.9666 23.4274 72.1051 24.4724 72.1051 26.0061C72.1051 27.5199 70.9666 28.5836 69.6492 28.5836ZM60.1311 21.7524C57.725 21.7524 55.7688 23.5399 55.7688 26.0061C55.7688 28.4524 57.725 30.2586 60.1311 30.2586C62.5359 30.2586 64.4934 28.4524 64.4934 26.0061C64.4934 23.5399 62.5359 21.7524 60.1311 21.7524ZM60.1311 28.5836C58.8124 28.5836 57.6752 27.5199 57.6752 26.0061C57.6752 24.4724 58.8124 23.4274 60.1311 23.4274C61.4485 23.4274 62.5819 24.4724 62.5819 26.0061C62.5819 27.5199 61.4485 28.5836 60.1311 28.5836ZM48.8049 23.0561V24.8636H53.217C53.088 25.8736 52.743 26.6161 52.214 27.1336C51.57 27.7586 50.5669 28.4524 48.8049 28.4524C46.0896 28.4524 43.9634 26.3086 43.9634 23.6524C43.9634 20.9961 46.0896 18.8524 48.8049 18.8524C50.273 18.8524 51.3413 19.4136 52.1296 20.1411L53.4317 18.8674C52.329 17.8374 50.8621 17.0461 48.8049 17.0461C45.0814 17.0461 41.9521 20.0099 41.9521 23.6524C41.9521 27.2949 45.0814 30.2586 48.8049 30.2586C50.8174 30.2586 52.329 29.6136 53.5173 28.4036C54.735 27.2124 55.1145 25.5374 55.1145 24.1849C55.1145 23.7649 55.0788 23.3786 55.0149 23.0561H48.8049ZM95.1192 24.4574C94.7601 23.5061 93.6523 21.7524 91.3957 21.7524C89.1596 21.7524 87.2979 23.4761 87.2979 26.0061C87.2979 28.3886 89.1405 30.2586 91.6104 30.2586C93.6076 30.2586 94.7601 29.0674 95.2342 28.3736L93.752 27.4074C93.2575 28.1149 92.5841 28.5836 91.6104 28.5836C90.6431 28.5836 89.9493 28.1499 89.5046 27.2949L95.3198 24.9411L95.1192 24.4574ZM89.1903 25.8736C89.1405 24.2336 90.4924 23.3936 91.4609 23.3936C92.2199 23.3936 92.8639 23.7649 93.0786 24.2961L89.1903 25.8736ZM84.4638 29.9999H86.3754V17.4999H84.4638V29.9999ZM81.3332 22.6999H81.2694C80.84 22.2024 80.021 21.7524 78.9834 21.7524C76.8061 21.7524 74.8153 23.6224 74.8153 26.0199C74.8153 28.4036 76.8061 30.2586 78.9834 30.2586C80.021 30.2586 80.84 29.8049 81.2694 29.2924H81.3332V29.9024C81.3332 31.5286 80.4452 32.4024 79.0128 32.4024C77.8449 32.4024 77.1204 31.5774 76.8214 30.8836L75.159 31.5624C75.6382 32.6899 76.907 34.0774 79.0128 34.0774C81.254 34.0774 83.1451 32.7874 83.1451 29.6486V22.0111H81.3332V22.6999ZM79.147 28.5836C77.8296 28.5836 76.7269 27.5049 76.7269 26.0199C76.7269 24.5211 77.8296 23.4274 79.147 23.4274C80.4452 23.4274 81.4687 24.5211 81.4687 26.0199C81.4687 27.5049 80.4452 28.5836 79.147 28.5836ZM104.069 17.4999H99.4968V29.9999H101.403V25.2636H104.069C106.186 25.2636 108.262 23.7649 108.262 21.3811C108.262 18.9986 106.181 17.4999 104.069 17.4999ZM104.119 23.5249H101.403V19.2386H104.119C105.542 19.2386 106.355 20.3949 106.355 21.3811C106.355 22.3486 105.542 23.5249 104.119 23.5249ZM115.904 21.7286C114.526 21.7286 113.094 22.3236 112.505 23.6424L114.196 24.3361C114.561 23.6424 115.23 23.4174 115.938 23.4174C116.927 23.4174 117.93 23.9986 117.945 25.0249V25.1561C117.6 24.9611 116.862 24.6724 115.953 24.6724C114.131 24.6724 112.275 25.6536 112.275 27.4849C112.275 29.1599 113.767 30.2386 115.445 30.2386C116.728 30.2386 117.436 29.6724 117.88 29.0136H117.945V29.9799H119.787V25.1849C119.787 22.9686 118.095 21.7286 115.904 21.7286ZM115.674 28.5786C115.05 28.5786 114.181 28.2761 114.181 27.5199C114.181 26.5524 115.265 26.1811 116.203 26.1811C117.042 26.1811 117.436 26.3624 117.945 26.6011C117.796 27.7586 116.778 28.5786 115.674 28.5786ZM126.495 22.0024L124.304 27.4211H124.238L121.973 22.0024H119.917L123.321 29.5749L121.379 33.7886H123.371L128.616 22.0024H126.495ZM109.31 29.9999H111.222V17.4999H109.31V29.9999Z" fill="white"/>
<defs>
<linearGradient id="paint0_linear_2372_7920" x1="22.2843" y1="31.2902" x2="5.50593" y2="14.1391" gradientUnits="userSpaceOnUse">
<stop stop-color="#00A0FF"/>
<stop offset="0.0066" stop-color="#00A1FF"/>
<stop offset="0.2601" stop-color="#00BEFF"/>
<stop offset="0.5122" stop-color="#00D2FF"/>
<stop offset="0.7604" stop-color="#00DFFF"/>
<stop offset="1" stop-color="#00E3FF"/>
</linearGradient>
<linearGradient id="paint1_linear_2372_7920" x1="34.5861" y1="19.9984" x2="9.85147" y2="19.9984" gradientUnits="userSpaceOnUse">
<stop stop-color="#FFE000"/>
<stop offset="0.4087" stop-color="#FFBD00"/>
<stop offset="0.7754" stop-color="#FFA500"/>
<stop offset="1" stop-color="#FF9C00"/>
</linearGradient>
<linearGradient id="paint2_linear_2372_7920" x1="25.3788" y1="17.7039" x2="2.626" y2="-5.55454" gradientUnits="userSpaceOnUse">
<stop stop-color="#FF3A44"/>
<stop offset="1" stop-color="#C31162"/>
</linearGradient>
<linearGradient id="paint3_linear_2372_7920" x1="7.45957" y1="39.8238" x2="17.6197" y2="29.438" gradientUnits="userSpaceOnUse">
<stop stop-color="#32A071"/>
<stop offset="0.0685" stop-color="#2DA771"/>
<stop offset="0.4762" stop-color="#15CF74"/>
<stop offset="0.8009" stop-color="#06E775"/>
<stop offset="1" stop-color="#00F076"/>
</linearGradient>
</defs>
</svg>
