<svg width="19" height="24" viewBox="0 0 19 24" fill="none" xmlns="http://www.w3.org/2000/svg">
<path d="M3.7241 7.34626C3.6101 8.56224 3.53011 10.7142 4.24809 11.6302C4.24809 11.6302 3.9101 9.26623 6.94003 6.30027C8.16 5.10629 8.442 3.48232 8.01601 2.26434C7.77401 1.57435 7.33202 1.00436 6.94803 0.606361C6.72404 0.372365 6.89603 -0.0136293 7.22202 0.000370508C9.19398 0.0883692 12.3899 0.63636 13.7479 4.04431C14.3439 5.54028 14.3879 7.08626 14.1039 8.65824C13.9239 9.66222 13.2839 11.8942 14.7439 12.1682C15.7858 12.3642 16.2898 11.5362 16.5158 10.9402C16.6098 10.6922 16.9358 10.6302 17.1118 10.8282C18.8718 12.8302 19.0218 15.1881 18.6578 17.2181C17.9538 21.142 13.9799 23.998 10.032 23.998C5.10007 23.998 1.17416 21.176 0.15618 16.0681C-0.253811 14.0062 -0.0458154 9.92622 3.13411 7.04626C3.37011 6.83027 3.7561 7.02226 3.7241 7.34626V7.34626Z" fill="url(#paint0_radial_2317_7675)"/>
<path d="M11.834 14.684C10.0161 12.344 10.83 9.67405 11.276 8.61007C11.336 8.47007 11.176 8.33807 11.05 8.42407C10.2681 8.95606 8.66609 10.208 7.92011 11.97C6.91013 14.352 6.98213 15.518 7.58012 16.9419C7.94011 17.7999 7.52212 17.9819 7.31212 18.0139C7.10813 18.0459 6.92013 17.9099 6.77013 17.7679C6.34014 17.3579 6.03015 16.8239 5.88215 16.248C5.85015 16.124 5.68816 16.09 5.61416 16.192C5.05417 16.9659 4.76418 18.2079 4.75018 19.0859C4.70618 21.7999 6.94813 23.9998 9.66007 23.9998C13.078 23.9998 15.5679 20.2199 13.604 17.0599C13.034 16.14 12.498 15.538 11.834 14.684Z" fill="url(#paint1_radial_2317_7675)"/>
<defs>
<radialGradient id="paint0_radial_2317_7675" cx="0" cy="0" r="1" gradientUnits="userSpaceOnUse" gradientTransform="translate(9.0552 24.0602) rotate(-179.751) scale(14.1172 23.1637)">
<stop offset="0.3144" stop-color="#FF9800"/>
<stop offset="0.6616" stop-color="#FF6D00"/>
<stop offset="0.9715" stop-color="#F44336"/>
</radialGradient>
<radialGradient id="paint1_radial_2317_7675" cx="0" cy="0" r="1" gradientUnits="userSpaceOnUse" gradientTransform="translate(9.84803 10.0118) rotate(90.5787) scale(14.771 11.1162)">
<stop offset="0.2141" stop-color="#FFF176"/>
<stop offset="0.3275" stop-color="#FFF27D"/>
<stop offset="0.4868" stop-color="#FFF48F"/>
<stop offset="0.6722" stop-color="#FFF7AD"/>
<stop offset="0.7931" stop-color="#FFF9C4"/>
<stop offset="0.8221" stop-color="#FFF8BD" stop-opacity="0.804"/>
<stop offset="0.8627" stop-color="#FFF6AB" stop-opacity="0.529"/>
<stop offset="0.9101" stop-color="#FFF38D" stop-opacity="0.2088"/>
<stop offset="0.9409" stop-color="#FFF176" stop-opacity="0"/>
</radialGradient>
</defs>
</svg>
