<svg width="56" height="56" viewBox="0 0 56 56" fill="none" xmlns="http://www.w3.org/2000/svg">
<rect width="56" height="56" rx="8" fill="#133E53"/>
<path d="M19.6963 30.2432C19.6963 30.0088 19.75 29.8916 19.8574 29.8916C19.9648 29.8916 20.0186 30.0234 20.0186 30.2871C20.0186 30.5215 19.9648 30.6387 19.8574 30.6387C19.75 30.6387 19.6963 30.5068 19.6963 30.2432ZM14.8037 17.0303C14.667 17.0303 14.5986 16.8643 14.5986 16.5322C14.667 16.4248 14.7207 16.3662 14.7598 16.3564C14.8184 16.3467 14.8623 16.3809 14.8916 16.459C14.9307 16.5371 14.9502 16.6396 14.9502 16.7666C14.9502 16.9424 14.9014 17.0303 14.8037 17.0303ZM15.7412 15.7852C15.7314 15.7852 15.6729 15.7314 15.5654 15.624V15.4922C15.5752 15.4727 15.5898 15.4482 15.6094 15.4189C15.6387 15.3799 15.6582 15.3506 15.668 15.3311C15.6875 15.3018 15.707 15.2871 15.7266 15.2871C15.7363 15.2871 15.7949 15.3652 15.9023 15.5215C15.8242 15.6875 15.7705 15.7754 15.7412 15.7852ZM14.7158 17.6748C14.7158 17.6846 14.7109 17.6992 14.7012 17.7188C14.7012 17.7383 14.6963 17.7578 14.6865 17.7773C14.6865 17.7969 14.6768 17.8262 14.6572 17.8652C14.6475 17.8945 14.6377 17.9287 14.6279 17.9678C14.5498 17.7822 14.5107 17.6797 14.5107 17.6602C14.5107 17.6406 14.5352 17.5723 14.584 17.4551C14.5938 17.4746 14.6084 17.499 14.6279 17.5283C14.6572 17.5479 14.6768 17.5723 14.6865 17.6016C14.7061 17.6211 14.7158 17.6455 14.7158 17.6748ZM16.1514 16.0342C16.1416 16.0342 16.1318 16.0293 16.1221 16.0195C16.1123 16.0098 16.0928 15.9902 16.0635 15.9609C16.0439 15.9219 16.0293 15.8975 16.0195 15.8877C16.0879 15.79 16.1367 15.7363 16.166 15.7266L16.2393 15.8291V15.8438C16.2197 15.9414 16.1904 16.0049 16.1514 16.0342ZM27.3721 21.6445C27.4307 21.752 27.4014 21.8203 27.2842 21.8496C27.1963 21.8789 27.1328 21.835 27.0938 21.7178C27.0742 21.6396 27.0596 21.5762 27.0498 21.5273C27.0303 21.4199 26.9814 21.3906 26.9033 21.4395C26.7959 21.5176 26.7227 21.5908 26.6836 21.6592C26.625 21.7666 26.5859 21.9033 26.5664 22.0693C26.6348 22.1377 26.708 22.2598 26.7861 22.4355C26.8252 22.377 26.8691 22.3623 26.918 22.3916C26.9961 22.4404 26.9961 22.5527 26.918 22.7285C26.9082 22.7383 26.9033 22.7529 26.9033 22.7725C26.9033 22.7822 26.8984 22.792 26.8887 22.8018C26.8887 22.8115 26.8887 22.8311 26.8887 22.8604C26.8984 22.8896 26.9033 22.9141 26.9033 22.9336C26.9033 22.9922 26.8838 23.0801 26.8447 23.1973C26.7764 23.4414 26.7715 23.6904 26.8301 23.9443C26.8398 23.9834 26.8447 24.042 26.8447 24.1201C26.8447 24.2471 26.7861 24.3105 26.6689 24.3105C26.5615 24.3105 26.5078 24.2471 26.5078 24.1201C26.5078 24.1006 26.5078 24.0615 26.5078 24.0029C26.5176 23.9443 26.5225 23.9004 26.5225 23.8711V23.6367C26.4248 24.1152 26.2148 24.5498 25.8926 24.9404C25.8926 24.9502 25.8926 24.9746 25.8926 25.0137C25.9023 25.0527 25.9072 25.0771 25.9072 25.0869C25.9268 25.2041 25.9365 25.292 25.9365 25.3506V25.3945C26.1025 25.8145 26.1172 26.1221 25.9805 26.3174C25.8633 26.4736 25.7998 26.6445 25.79 26.8301C25.6924 26.8105 25.5703 26.8887 25.4238 27.0645C25.2871 27.2305 25.1748 27.4111 25.0869 27.6064C25.0088 28.1338 25.0137 28.5146 25.1016 28.749C25.1113 28.7881 25.0869 28.8369 25.0283 28.8955C25.0283 28.915 25.0234 28.9443 25.0137 28.9834C25.0137 29.0127 25.0137 29.0371 25.0137 29.0566L25.1016 29.7598C25.1699 29.9062 25.1943 30.0723 25.1748 30.2578C25.1748 30.2773 25.1748 30.3115 25.1748 30.3604C25.1846 30.4092 25.1895 30.4434 25.1895 30.4629C25.248 30.6289 25.2676 30.8828 25.248 31.2246C25.2871 31.7422 25.2627 32.1279 25.1748 32.3818C25.0869 32.3135 25.0527 32.1426 25.0723 31.8691C25.1016 31.5859 25.1064 31.4102 25.0869 31.3418C25.0479 31.2539 25.0234 31.1709 25.0137 31.0928C25.0039 31.0049 25.0039 30.8926 25.0137 30.7559C25.0234 30.6191 25.0283 30.5361 25.0283 30.5068C25.0283 30.4775 25.0234 30.4385 25.0137 30.3896C25.0137 30.3408 25.0137 30.3066 25.0137 30.2871C25.0137 30.2773 25.0039 30.2627 24.9844 30.2432C24.9746 30.2139 24.9648 30.1943 24.9551 30.1846V29.7012C24.9551 29.6621 24.9502 29.5986 24.9404 29.5107C24.9307 29.4229 24.9258 29.3594 24.9258 29.3203L24.9111 29.291V29.2617C24.9014 29.2422 24.8965 29.208 24.8965 29.1592L24.8525 28.9834C24.8525 28.9639 24.8428 28.9395 24.8232 28.9102C24.8037 28.8809 24.7939 28.8613 24.7939 28.8516C24.8623 28.8125 24.8721 28.7393 24.8232 28.6318C24.7842 28.5244 24.7695 28.4512 24.7793 28.4121C24.7988 28.4023 24.8086 28.3828 24.8086 28.3535C24.877 28.207 24.8916 28.002 24.8525 27.7383C24.8135 27.4746 24.7061 27.3525 24.5303 27.3721C24.54 27.1475 24.5254 27.04 24.4863 27.0498C24.4082 27.0693 24.3447 27.2793 24.2959 27.6797C24.2666 27.8652 24.2666 28.002 24.2959 28.0898C24.1885 28.1094 24.1201 28.0898 24.0908 28.0312C24.0615 27.9727 24.0518 27.8994 24.0615 27.8115C24.0811 27.7139 24.0713 27.6211 24.0322 27.5332C23.9541 27.8066 23.915 27.9629 23.915 28.002C23.9053 28.0801 23.9004 28.4414 23.9004 29.0859C23.9004 29.1152 23.9102 29.1641 23.9297 29.2324C23.9492 29.291 23.959 29.3301 23.959 29.3496C23.9688 29.3887 23.9639 29.4424 23.9443 29.5107L23.8418 29.5254C23.8027 29.4668 23.7832 29.4131 23.7832 29.3643V29.0859V29.1006C23.7734 29.1104 23.749 29.1152 23.71 29.1152C23.7002 29.1055 23.6855 29.0957 23.666 29.0859C23.6465 29.0664 23.6318 29.0566 23.6221 29.0566C23.6221 29.0469 23.6172 29.0371 23.6074 29.0273C23.6074 29.0078 23.6074 28.9932 23.6074 28.9834C23.6074 28.9736 23.6123 28.9688 23.6221 28.9688V28.9102C23.6416 28.8613 23.6514 28.7588 23.6514 28.6025C23.6514 28.5928 23.6514 28.5879 23.6514 28.5879L23.666 28.5586C23.666 28.5488 23.666 28.5391 23.666 28.5293C23.6758 28.5098 23.6807 28.4951 23.6807 28.4854V28.4707C23.6709 28.4512 23.666 28.4365 23.666 28.4268V28.2217C23.6758 28.1729 23.6758 28.1289 23.666 28.0898V27.9727L23.6074 27.9141C23.5977 27.9238 23.5732 27.9482 23.5342 27.9873C23.5049 28.0264 23.4854 28.0557 23.4756 28.0752C23.417 28.3291 23.3828 28.5195 23.373 28.6465C23.3633 28.8125 23.3584 29.0664 23.3584 29.4082H23.3145C23.373 29.8965 23.4121 30.2627 23.4316 30.5068C23.4316 30.5557 23.417 30.5947 23.3877 30.624C23.3389 30.6533 23.2998 30.6582 23.2705 30.6387C23.2412 30.6094 23.2266 30.5703 23.2266 30.5215C23.2461 29.8574 23.2559 29.3545 23.2559 29.0127C23.2559 28.8467 23.2217 28.6611 23.1533 28.4561C23.1436 28.4268 23.1191 28.3975 23.0801 28.3682C23.0508 28.3291 23.0215 28.3096 22.9922 28.3096C22.9043 28.3096 22.8408 28.3486 22.8018 28.4268C22.6748 28.6611 22.6553 28.9785 22.7432 29.3789C22.7627 29.418 22.7725 29.4521 22.7725 29.4814C22.7725 29.54 22.7578 29.584 22.7285 29.6133C22.6895 29.6523 22.6504 29.6523 22.6113 29.6133C22.5723 29.5742 22.5527 29.5303 22.5527 29.4814C22.5625 29.4131 22.5723 29.3105 22.582 29.1738C22.5918 29.0371 22.6016 28.9346 22.6113 28.8662C22.6113 28.7686 22.6016 28.7002 22.582 28.6611C22.5039 28.5342 22.4404 28.4707 22.3916 28.4707C22.2842 28.4707 22.1963 28.5146 22.1279 28.6025C22.0889 28.6709 22.0645 28.7148 22.0547 28.7344C22.0449 28.8418 22.0352 29.0127 22.0254 29.2471C22.0254 29.4717 22.0254 29.6377 22.0254 29.7451C22.0254 29.8818 22.0059 29.9697 21.9668 30.0088C21.9473 30.0381 21.9277 30.0186 21.9082 29.9502C21.9082 29.9404 21.9033 29.9307 21.8936 29.9209L21.8789 29.8477C21.8203 29.6523 21.7715 29.5303 21.7324 29.4814C21.7031 29.4229 21.6689 29.4229 21.6299 29.4814C21.5908 29.5303 21.5469 29.6523 21.498 29.8477C21.4297 30.0918 21.3467 30.126 21.249 29.9502C21.2197 29.8916 21.1758 29.7939 21.1172 29.6572V29.6719C21.1172 29.7012 21.1318 29.7451 21.1611 29.8037C21.1904 29.8525 21.2051 29.8916 21.2051 29.9209C21.2148 29.9697 21.2002 30.0283 21.1611 30.0967C21.1416 30.1162 21.1123 30.126 21.0732 30.126C21.0439 30.126 21.0195 30.1211 21 30.1113C20.9414 30.0527 20.9219 29.9941 20.9414 29.9355C20.9805 29.7207 21.0049 29.5547 21.0146 29.4375C20.8877 29.2617 20.7705 29.2764 20.6631 29.4814C20.5166 29.7549 20.4678 30.1602 20.5166 30.6973C20.5361 30.9609 20.5752 31.3564 20.6338 31.8838C20.6338 31.9131 20.6338 31.9473 20.6338 31.9863C20.6436 32.0254 20.6484 32.0596 20.6484 32.0889C20.6484 32.7627 20.6436 33.1436 20.6338 33.2314C20.624 33.251 20.6094 33.2852 20.5898 33.334C20.5801 33.373 20.5703 33.4023 20.5605 33.4219C20.541 33.4512 20.5312 33.5146 20.5312 33.6123V33.5977C20.2969 33.4121 20.2041 32.9434 20.2529 32.1914V31.9863C20.3115 31.4297 20.3311 30.8193 20.3115 30.1553C20.3018 29.5596 20.2041 29.2422 20.0186 29.2031C19.9502 29.2031 19.8867 29.2471 19.8281 29.335C19.7598 29.4521 19.6816 29.6475 19.5938 29.9209C19.5547 30.0674 19.4912 30.165 19.4033 30.2139C19.3936 30.2041 19.374 30.1992 19.3447 30.1992C19.3154 30.1895 19.291 30.1699 19.2715 30.1406C19.2617 30.1113 19.252 30.0576 19.2422 29.9795V29.877C19.1543 30.1016 19.1055 30.2578 19.0957 30.3457C19.1055 30.3848 19.1104 30.4482 19.1104 30.5361H19.2275C19.1982 30.6729 19.1641 30.8535 19.125 31.0781C19.125 31.1074 19.0811 31.5078 18.9932 32.2793C18.9736 32.6113 18.9736 33.1338 18.9932 33.8467C19.0127 33.9053 19.0225 33.9492 19.0225 33.9785C19.042 33.8223 19.0518 33.7051 19.0518 33.627C19.0518 33.5684 19.0518 33.5098 19.0518 33.4512C19.0518 33.3828 19.0518 33.3047 19.0518 33.2168C19.0518 33.1191 19.0518 33.041 19.0518 32.9824C19.0615 33.1289 19.0762 33.3877 19.0957 33.7588C19.125 34.1299 19.1494 34.4131 19.1689 34.6084V34.667C19.1689 34.9502 19.1299 35.0918 19.0518 35.0918V35.0771C19.0518 35.0674 19.0469 35.0625 19.0371 35.0625V35.8535C19.0273 36.3613 18.9736 36.5957 18.876 36.5566C18.7783 36.4883 18.7295 36.2051 18.7295 35.707C18.7295 35.4043 18.7393 34.96 18.7588 34.374C18.7295 34.374 18.7051 34.3643 18.6855 34.3447C18.6758 34.4131 18.6514 34.4326 18.6123 34.4033C18.5439 34.335 18.5 34.1592 18.4805 33.876C18.4805 33.8662 18.4756 33.8516 18.4658 33.832C18.4658 33.8125 18.4609 33.7832 18.4512 33.7441C18.4512 33.7051 18.4512 33.666 18.4512 33.627C18.4512 33.6758 18.4463 33.7588 18.4365 33.876C18.4365 33.9834 18.4365 34.0664 18.4365 34.125L18.4805 36.7178C18.4902 37.0596 18.4951 37.5723 18.4951 38.2559C18.4951 38.9785 18.4414 39.3398 18.334 39.3398C18.2266 39.3398 18.1729 38.9541 18.1729 38.1826C18.1729 37.665 18.1826 36.8887 18.2021 35.8535C18.2021 35.7754 18.2021 35.6533 18.2021 35.4873C18.2119 35.3213 18.2168 35.1992 18.2168 35.1211C18.1973 34.9844 18.1875 34.8818 18.1875 34.8135C18.1875 34.7549 18.1973 34.667 18.2168 34.5498V33.832C18.207 33.2363 18.1729 32.9385 18.1143 32.9385C18.085 32.9385 18.0459 33.002 17.9971 33.1289C17.9092 33.3535 17.8359 33.2852 17.7773 32.9238C17.7676 32.8848 17.7529 32.8164 17.7334 32.7188C17.7236 32.6113 17.7139 32.543 17.7041 32.5137C17.6455 32.3965 17.6016 32.3525 17.5723 32.3818C17.5625 32.4111 17.5479 32.5234 17.5283 32.7188C17.5381 32.9336 17.5625 33.2021 17.6016 33.5244C17.6406 33.8467 17.6602 34.0811 17.6602 34.2275C17.6602 34.3643 17.6211 34.4375 17.543 34.4473C17.543 34.5645 17.5381 34.6475 17.5283 34.6963C17.5186 34.8623 17.4893 35.0137 17.4404 35.1504C17.4795 35.1406 17.5088 35.1602 17.5283 35.209C17.5479 35.2578 17.5479 35.3213 17.5283 35.3994C17.4893 35.5557 17.4258 35.5605 17.3379 35.4141C17.3281 35.2871 17.3428 35.209 17.3818 35.1797C17.3232 35.082 17.2939 34.9062 17.2939 34.6523V33.9785V33.6855C17.2158 33.5391 17.2012 33.3584 17.25 33.1436C17.2891 32.9775 17.3135 32.8359 17.3232 32.7188C17.3232 32.3477 17.3184 32.0791 17.3086 31.9131C17.3086 31.8545 17.3037 31.8105 17.2939 31.7812C17.167 31.3906 17.0938 31.0537 17.0742 30.7705C17.0645 30.4873 17.0889 30.292 17.1475 30.1846C17.2158 30.0674 17.2793 29.9502 17.3379 29.833C17.4062 29.7158 17.4551 29.623 17.4844 29.5547C17.5137 29.4766 17.4844 29.3398 17.3965 29.1445C17.3965 29.2422 17.3916 29.3301 17.3818 29.4082C17.3721 29.4766 17.3623 29.5352 17.3525 29.584C17.3525 29.6328 17.3428 29.667 17.3232 29.6865C17.3135 29.7061 17.2988 29.7109 17.2793 29.7012C17.25 29.6719 17.2305 29.6475 17.2207 29.6279C17.2012 29.7646 17.167 29.833 17.1182 29.833C17.0205 29.833 16.9717 29.6621 16.9717 29.3203C16.9814 29.3105 16.9912 29.291 17.001 29.2617C17.0205 29.2324 17.0352 29.208 17.0449 29.1885C17.0645 29.1592 17.0791 29.1396 17.0889 29.1299C17.1084 29.1201 17.1328 29.1396 17.1621 29.1885V28.8809C17.1816 28.4902 17.2012 28.207 17.2207 28.0312C17.2695 27.5039 17.2793 26.9912 17.25 26.4932C17.1914 25.3506 17.2109 24.3203 17.3086 23.4023C17.3086 23.0117 17.2988 22.4355 17.2793 21.6738C17.2793 21.5664 17.2549 21.4883 17.2061 21.4395C17.0791 21.3125 17.04 21.127 17.0889 20.8828C17.0693 20.7852 17.0498 20.6973 17.0303 20.6191C16.9814 20.7168 16.9521 20.7607 16.9424 20.751L16.8252 20.5166C16.8545 20.4287 16.874 20.375 16.8838 20.3555C16.835 20.3066 16.7764 20.2822 16.708 20.2822C16.6494 20.292 16.5859 20.3994 16.5176 20.6045C16.4883 20.7119 16.4736 20.8389 16.4736 20.9854C16.4834 21.1025 16.4932 21.2832 16.5029 21.5273C16.5225 21.7617 16.5322 21.9375 16.5322 22.0547C16.5322 22.1719 16.5176 22.25 16.4883 22.2891C16.4785 22.3086 16.459 22.3184 16.4297 22.3184C16.4004 22.3184 16.376 22.3086 16.3564 22.2891C16.3271 22.2305 16.3125 22.1523 16.3125 22.0547C16.3125 22.0059 16.3223 21.9424 16.3418 21.8643C16.4297 21.1514 16.4102 20.5996 16.2832 20.209C16.2637 20.1602 16.2344 20.1113 16.1953 20.0625C16.1562 20.0039 16.1221 19.9795 16.0928 19.9893C15.9951 20.0186 15.9365 20.1064 15.917 20.2529C15.8389 20.6631 15.7998 20.9854 15.7998 21.2197L15.8438 23.9004C15.8438 23.9785 15.8242 24.0469 15.7852 24.1055C15.7461 24.1445 15.707 24.1396 15.668 24.0908C15.6387 24.042 15.624 23.9736 15.624 23.8857V23.8711C15.5557 23.8027 15.5215 23.6221 15.5215 23.3291C15.5215 23.124 15.5312 22.8164 15.5508 22.4062C15.5801 21.752 15.5361 21.3906 15.4189 21.3223C15.3701 21.293 15.3311 21.3467 15.3018 21.4834C15.2822 21.5615 15.2676 21.6494 15.2578 21.7471V21.8643C15.2578 21.9033 15.248 21.9619 15.2285 22.04V22.2891C15.2285 22.6797 15.2383 23.2559 15.2578 24.0176C15.2773 24.4668 15.2871 24.8037 15.2871 25.0283C15.2871 25.5166 15.2334 25.7607 15.126 25.7607C15.0771 25.7607 15.0332 25.6826 14.9941 25.5264C14.9648 25.3701 14.9502 25.1895 14.9502 24.9844C14.9502 24.9746 14.9648 24.457 14.9941 23.4316C15.0039 23.1387 15.0088 22.6943 15.0088 22.0986C14.999 21.708 14.96 21.5078 14.8916 21.498C14.8623 21.4883 14.8232 21.5273 14.7744 21.6152C14.6963 21.752 14.6279 21.708 14.5693 21.4834C14.5693 21.4736 14.5547 21.4297 14.5254 21.3516C14.5059 21.2734 14.4912 21.2246 14.4814 21.2051C14.4229 21.127 14.3838 21.1025 14.3643 21.1318C14.3252 21.1904 14.3057 21.3223 14.3057 21.5273C14.3057 21.6055 14.3057 21.7178 14.3057 21.8643C14.3154 22.0107 14.3203 22.1182 14.3203 22.1865C14.3203 22.4307 14.3154 22.5918 14.3057 22.6699C14.2666 22.8848 14.2275 22.9922 14.1885 22.9922C14.1201 22.9922 14.0859 22.875 14.0859 22.6406C14.0762 22.3867 14.0811 22.0156 14.1006 21.5273C14.1104 21.2637 14.0762 20.9365 13.998 20.5459C13.9297 20.1455 13.8955 19.9307 13.8955 19.9014C13.8564 19.5107 13.9004 19.1494 14.0273 18.8174C14.1641 18.4854 14.3447 18.2656 14.5693 18.1582C14.501 18.1387 14.4766 18.1094 14.4961 18.0703C14.5254 18.0117 14.6328 17.9629 14.8184 17.9238C14.8379 17.9238 14.8574 17.9189 14.877 17.9092V17.8945C14.8379 17.6797 14.8477 17.499 14.9062 17.3525C14.9746 17.1963 15.0771 17.1084 15.2139 17.0889H15.375C15.502 17.0986 15.6143 17.0547 15.7119 16.957C15.8096 16.8594 15.8877 16.7129 15.9463 16.5176C15.9951 16.3516 16.0391 16.2588 16.0781 16.2393C16.127 16.2197 16.1953 16.2588 16.2832 16.3564C16.4395 16.542 16.5908 16.5664 16.7373 16.4297C16.835 16.3516 16.9131 16.3857 16.9717 16.5322C17.0596 16.7471 17.1865 16.8643 17.3525 16.8838H17.3818C17.4014 16.874 17.4258 16.8594 17.4551 16.8398C17.4941 16.8203 17.5186 16.8057 17.5283 16.7959C17.5479 16.7861 17.5771 16.7764 17.6162 16.7666C17.665 16.7568 17.6992 16.752 17.7188 16.752C17.7383 16.752 17.7676 16.752 17.8066 16.752C17.8457 16.7422 17.875 16.7373 17.8945 16.7373C17.9141 16.7178 17.9287 16.6982 17.9385 16.6787C17.9189 16.6787 17.8896 16.6787 17.8506 16.6787C17.8115 16.6689 17.7822 16.6641 17.7627 16.6641C17.6553 16.6738 17.5674 16.6738 17.499 16.6641C17.4307 16.6543 17.3818 16.6445 17.3525 16.6348C17.3232 16.6152 17.3086 16.5908 17.3086 16.5615C17.3281 16.4639 17.4941 16.415 17.8066 16.415C17.9336 16.415 18.1045 16.4248 18.3193 16.4443C18.6611 16.4736 18.9785 16.4639 19.2715 16.415C20.0723 16.2881 20.8242 16.2881 21.5273 16.415C22.2402 16.5322 22.6748 16.7373 22.8311 17.0303C22.8799 17.1084 22.8945 17.1914 22.875 17.2793C23.998 17.5332 24.7842 17.9092 25.2334 18.4072C25.1846 18.2998 25.1846 18.2363 25.2334 18.2168C25.3213 18.1777 25.4189 18.2363 25.5264 18.3926C25.585 18.4707 25.6387 18.5732 25.6875 18.7002C25.7852 18.9053 25.9023 19.0713 26.0391 19.1982C26.2344 19.3838 26.4199 19.6328 26.5957 19.9453C26.9863 20.1797 27.1963 20.5068 27.2256 20.9268C27.2451 21.249 27.2939 21.4883 27.3721 21.6445ZM17.25 19.7988C17.2988 20.0234 17.3477 20.2041 17.3965 20.3408C17.5039 20.1943 17.5625 19.9844 17.5723 19.7109C17.5723 19.6914 17.5869 19.5498 17.6162 19.2861C17.5674 19.2568 17.5479 19.208 17.5576 19.1396C17.4893 19.1201 17.4355 19.1299 17.3965 19.1689C17.2305 19.2959 17.1816 19.5059 17.25 19.7988ZM17.4111 22.6699C17.5186 21.9766 17.6602 21.459 17.8359 21.1172C17.7188 21.0586 17.6357 21.127 17.5869 21.3223C17.4795 21.8496 17.4209 22.2109 17.4111 22.4062V22.6699ZM18.2754 16.8252L18.3926 16.7373C18.2852 16.6982 18.1484 16.6787 17.9824 16.6787C18.002 16.7178 18.0166 16.7422 18.0264 16.752H18.085C18.1045 16.7617 18.1338 16.7764 18.1729 16.7959C18.2217 16.8057 18.2559 16.8154 18.2754 16.8252ZM18.9932 22.1865C19.0127 22.2842 19.0273 22.3623 19.0371 22.4209C19.0371 22.4111 19.0322 22.3867 19.0225 22.3477C19.0225 22.3086 19.0225 22.2842 19.0225 22.2744C19.0225 22.2549 19.0127 22.2256 18.9932 22.1865ZM20.6191 19.1396V19.1689V19.1396C20.6582 19.1396 20.6826 19.125 20.6924 19.0957V19.0664V19.0957C20.6533 19.0957 20.6289 19.1104 20.6191 19.1396ZM20.502 19.3447L20.4873 19.3301V19.3447H20.502ZM23.7979 28.749C23.7979 28.7002 23.7979 28.6318 23.7979 28.5439C23.8076 28.4561 23.8125 28.3877 23.8125 28.3389C23.8125 28.3193 23.8027 28.2705 23.7832 28.1924V28.251V28.4268V28.5V28.5586V28.6025V28.6904V28.7197C23.7832 28.7295 23.7881 28.7393 23.7979 28.749ZM24.7061 21.7617C24.7646 21.625 24.7744 21.4834 24.7354 21.3369C24.6963 21.1709 24.6914 20.9951 24.7207 20.8096C24.6816 20.7607 24.5498 20.624 24.3252 20.3994C24.2471 20.5557 24.208 20.7803 24.208 21.0732C24.2178 21.1514 24.2275 21.2686 24.2373 21.4248C24.2568 21.5713 24.2666 21.6787 24.2666 21.7471C24.2666 21.8936 24.2617 21.9814 24.252 22.0107C24.2324 22.0889 24.1787 22.1279 24.0908 22.1279C24.0322 22.1279 23.9834 22.084 23.9443 21.9961C23.9346 21.9766 23.9297 21.9131 23.9297 21.8057C23.9297 21.7178 23.9346 21.5371 23.9443 21.2637C23.9541 20.9805 23.9541 20.7656 23.9443 20.6191C23.9443 20.5801 23.9004 20.4824 23.8125 20.3262C23.7344 20.1797 23.6758 20.0869 23.6367 20.0479C23.5684 19.9502 23.5098 19.9014 23.4609 19.9014C23.4316 19.9014 23.3975 19.9209 23.3584 19.96C23.3193 19.999 23.2949 20.0332 23.2852 20.0625C23.2656 20.1504 23.2656 20.292 23.2852 20.4873C23.2949 20.5264 23.3047 20.5801 23.3145 20.6484C23.334 20.7168 23.3438 20.7705 23.3438 20.8096C23.3438 20.8975 23.334 20.9561 23.3145 20.9854C23.2656 21.0635 23.2217 21.1025 23.1826 21.1025C23.1533 21.1025 23.0996 21.0635 23.0215 20.9854C22.9922 20.9561 22.9873 20.9219 23.0068 20.8828C23.0459 20.7754 23.041 20.5117 22.9922 20.0918C22.9629 19.8281 22.9824 19.5986 23.0508 19.4033C23.0312 19.3936 22.9971 19.3887 22.9482 19.3887C22.8994 19.3887 22.8652 19.3838 22.8457 19.374C22.8262 19.6084 22.8164 19.7842 22.8164 19.9014C22.8164 20.1455 22.8018 20.3262 22.7725 20.4434C22.7139 20.6484 22.6504 20.6582 22.582 20.4727C22.582 20.4629 22.5771 20.4482 22.5674 20.4287C22.5283 20.3701 22.499 20.3408 22.4795 20.3408C22.4404 20.3604 22.4209 20.4287 22.4209 20.5459C22.4209 20.6533 22.416 20.8145 22.4062 21.0293C22.3965 21.2344 22.3867 21.3906 22.377 21.498C22.377 21.625 22.3525 21.6934 22.3037 21.7031C22.2646 21.7129 22.2305 21.6543 22.2012 21.5273C22.1914 21.498 22.1816 21.459 22.1719 21.4102C22.1621 21.3613 22.1572 21.3223 22.1572 21.293C22.1475 21.2148 22.1328 21.1611 22.1133 21.1318C22.1035 21.1025 22.0742 21.1123 22.0254 21.1611C21.9277 21.2881 21.8691 21.249 21.8496 21.0439C21.8398 20.9658 21.8301 20.8438 21.8203 20.6777C21.8105 20.5117 21.8057 20.4238 21.8057 20.4141C21.8057 20.209 21.7715 20.0869 21.7031 20.0479C21.6152 19.999 21.5518 20.0723 21.5127 20.2676C21.4834 20.3262 21.459 20.3555 21.4395 20.3555C21.4004 20.3457 21.3809 20.2871 21.3809 20.1797C21.3809 20.043 21.3613 19.9697 21.3223 19.96C21.293 19.9502 21.2734 19.96 21.2637 19.9893C21.2539 20.0088 21.2344 20.0527 21.2051 20.1211C21.0684 20.4531 21.0439 20.8633 21.1318 21.3516C21.1807 21.7129 21.2051 21.918 21.2051 21.9668C21.2051 22.1523 21.166 22.2695 21.0879 22.3184H21.0146C20.9072 22.2109 20.873 21.9619 20.9121 21.5713C20.9707 21.1318 20.9609 20.7266 20.8828 20.3555C20.873 20.3262 20.8145 20.1016 20.707 19.6816C20.6582 19.5254 20.5654 19.457 20.4287 19.4766L20.3994 19.5059C20.3506 19.5547 20.3213 19.5938 20.3115 19.623V19.6816V19.6963L20.2969 19.7109V19.7988V19.9746V20.1504V20.2236V20.2822V20.3262V20.4141V20.4434C20.2969 20.4531 20.3018 20.4629 20.3115 20.4727V20.4873C20.3115 20.5654 20.3213 20.624 20.3408 20.6631C20.3408 20.751 20.3213 20.8047 20.2822 20.8242C20.2725 20.834 20.248 20.8389 20.209 20.8389C20.1992 20.8291 20.1846 20.8193 20.165 20.8096C20.1553 20.7998 20.1455 20.7949 20.1357 20.7949C20.1357 20.7852 20.1309 20.7754 20.1211 20.7656C20.1211 20.7461 20.1211 20.7314 20.1211 20.7217V20.6924C20.1211 20.6826 20.1211 20.6729 20.1211 20.6631C20.1309 20.6533 20.1357 20.6436 20.1357 20.6338C20.1553 20.585 20.165 20.4873 20.165 20.3408C20.165 20.3311 20.165 20.3213 20.165 20.3115C20.1748 20.3018 20.1797 20.292 20.1797 20.2822V20.2236V20.209C20.1699 20.209 20.1553 20.2041 20.1357 20.1943C20.1064 20.1846 20.082 20.1992 20.0625 20.2383C20.0527 20.2773 20.043 20.3262 20.0332 20.3848C20.0137 20.4629 20.0039 20.5703 20.0039 20.707C20.1113 20.8438 20.1943 21 20.2529 21.1758C20.2529 21.1855 20.2529 21.2002 20.2529 21.2197C20.2627 21.2295 20.2676 21.2393 20.2676 21.249C20.2676 21.2588 20.2676 21.2686 20.2676 21.2783C20.2773 21.2881 20.2822 21.2979 20.2822 21.3076V21.4102V21.5859C20.2725 21.5957 20.2676 21.6055 20.2676 21.6152C20.2676 21.625 20.2725 21.6299 20.2822 21.6299C20.2041 21.8252 20.1357 21.9668 20.0771 22.0547C20.0283 22.123 19.9551 22.1523 19.8574 22.1426C19.7305 22.123 19.6475 22.1621 19.6084 22.2598V23.4316C19.6084 23.4902 19.6182 23.5732 19.6377 23.6807C19.6572 23.7881 19.667 23.8613 19.667 23.9004C19.667 23.9785 19.6572 24.0859 19.6377 24.2227C19.6182 24.2324 19.5938 24.2422 19.5645 24.252C19.5352 24.1641 19.5205 24.0615 19.5205 23.9443C19.5205 23.7588 19.5205 23.4854 19.5205 23.124C19.5303 22.7627 19.5352 22.4941 19.5352 22.3184C19.4863 22.3379 19.4424 22.333 19.4033 22.3037C19.3545 22.2158 19.3203 22.1621 19.3008 22.1426C19.291 22.123 19.2617 22.123 19.2129 22.1426C19.1934 22.3574 19.1836 22.5137 19.1836 22.6113V23.4902C19.2324 23.9492 19.2617 24.4375 19.2715 24.9551C19.291 26.166 19.3301 27.0498 19.3887 27.6064C19.3984 27.6553 19.3691 27.8018 19.3008 28.0459C19.7988 27.9971 20.2822 27.8896 20.751 27.7236C20.7705 27.6748 20.7949 27.6406 20.8242 27.6211C20.8438 27.6016 20.9414 27.543 21.1172 27.4453C21.2539 27.377 21.332 27.2549 21.3516 27.0791C21.3711 26.9814 21.3906 26.8984 21.4102 26.8301C21.459 26.6738 21.5859 26.5859 21.791 26.5664C21.9375 26.5469 22.0547 26.4834 22.1426 26.376C22.2012 26.2881 22.2744 26.2686 22.3623 26.3174C22.4014 26.3467 22.4453 26.3613 22.4941 26.3613C22.543 26.2734 22.6064 26.2002 22.6846 26.1416L22.6992 26.127H22.7139C22.7334 26.1172 22.7578 26.1025 22.7871 26.083C22.8262 26.0635 22.8555 26.0488 22.875 26.0391C22.8555 26.0195 22.8457 26 22.8457 25.9805C22.8457 25.9707 22.8555 25.9561 22.875 25.9365C22.8945 25.917 22.9092 25.9072 22.9189 25.9072C22.9287 25.9072 22.9385 25.9121 22.9482 25.9219C22.958 25.9316 22.9678 25.9414 22.9775 25.9512C22.9971 25.9609 23.0117 25.9707 23.0215 25.9805C23.0312 25.9805 23.0361 25.9805 23.0361 25.9805L23.0654 25.9658L23.0801 25.9512C23.0898 25.9512 23.0996 25.9512 23.1094 25.9512C23.1191 25.9707 23.1338 25.9707 23.1533 25.9512C23.1631 25.9512 23.1777 25.9512 23.1973 25.9512C23.2168 25.9414 23.2314 25.9365 23.2412 25.9365C23.251 25.9365 23.2607 25.9414 23.2705 25.9512C23.29 25.9512 23.3047 25.9512 23.3145 25.9512C23.3242 25.9512 23.3389 25.9561 23.3584 25.9658C23.3779 25.9658 23.3926 25.9658 23.4023 25.9658C23.4023 25.9561 23.3975 25.9414 23.3877 25.9219C23.3486 25.9414 23.3242 25.9512 23.3145 25.9512C23.2852 25.9414 23.2363 25.8926 23.168 25.8047C23.1777 25.7949 23.1973 25.7754 23.2266 25.7461C23.2559 25.7168 23.2754 25.6973 23.2852 25.6875C23.0996 25.209 23.2021 24.8672 23.5928 24.6621C23.9346 24.4766 24.1689 24.3838 24.2959 24.3838C24.2861 24.1201 24.3252 23.8271 24.4131 23.5049C24.4131 23.4854 24.4229 23.4609 24.4424 23.4316C24.4619 23.3926 24.4717 23.3633 24.4717 23.3438C24.4326 23.2656 24.4082 23.207 24.3984 23.168C24.291 22.8164 24.3789 22.4746 24.6621 22.1426C24.6328 22.0938 24.623 22.04 24.6328 21.9814C24.6426 21.9326 24.667 21.8594 24.7061 21.7617ZM25.585 21.6738C25.585 21.6641 25.5947 21.6494 25.6143 21.6299C25.6338 21.6104 25.6436 21.5957 25.6436 21.5859C25.624 21.5664 25.585 21.542 25.5264 21.5127C25.4678 21.4834 25.4287 21.4639 25.4092 21.4541C25.3994 21.4639 25.3799 21.4785 25.3506 21.498C25.2627 21.5762 25.1699 21.6543 25.0723 21.7324C25.0332 21.7617 25.0039 21.8008 24.9844 21.8496L25.1602 21.7617C25.2871 21.7031 25.4287 21.6738 25.585 21.6738ZM20.4873 26.5811C20.5654 26.5811 20.6338 26.6104 20.6924 26.6689C20.7607 26.7178 20.7949 26.7764 20.7949 26.8447C20.7949 26.9814 20.7266 27.0498 20.5898 27.0498C20.5117 27.0498 20.4385 27.0205 20.3701 26.9619C20.3018 26.8936 20.2725 26.8252 20.2822 26.7568C20.2822 26.6396 20.3506 26.5811 20.4873 26.5811ZM20.3994 27.5186C20.4092 27.5088 20.4189 27.499 20.4287 27.4893C20.4385 27.4697 20.4531 27.4502 20.4727 27.4307C20.502 27.4111 20.5215 27.3965 20.5312 27.3867C20.5508 27.4062 20.5752 27.4355 20.6045 27.4746C20.6338 27.5137 20.6582 27.543 20.6777 27.5625C20.668 27.5723 20.6533 27.5869 20.6338 27.6064C20.6143 27.626 20.5996 27.6406 20.5898 27.6504C20.5801 27.6504 20.5703 27.6504 20.5605 27.6504C20.5215 27.6309 20.4678 27.5869 20.3994 27.5186ZM21.1172 26.5225C21.1465 26.4932 21.1758 26.459 21.2051 26.4199C21.2148 26.4297 21.2246 26.4443 21.2344 26.4639C21.2539 26.4834 21.2686 26.5029 21.2783 26.5225C21.2979 26.5322 21.3076 26.542 21.3076 26.5518L21.249 26.625C21.1709 26.5762 21.127 26.542 21.1172 26.5225ZM28.5732 27.6211C28.5732 27.6113 28.583 27.582 28.6025 27.5332C28.6318 27.4746 28.6562 27.4209 28.6758 27.3721C28.6855 27.4111 28.7002 27.4697 28.7197 27.5479C28.749 27.6162 28.7686 27.6699 28.7783 27.709C28.7686 27.7188 28.7588 27.7383 28.749 27.7676C28.7197 27.8457 28.7002 27.8799 28.6904 27.8701C28.6807 27.8604 28.666 27.8408 28.6465 27.8115C28.6367 27.7822 28.6221 27.748 28.6025 27.709C28.5928 27.6699 28.583 27.6406 28.5732 27.6211ZM31.6934 26.7715C31.6934 26.7422 31.6934 26.7178 31.6934 26.6982C31.6934 26.6787 31.7227 26.6006 31.7812 26.4639C31.7812 26.4834 31.791 26.5176 31.8105 26.5664C31.8301 26.6152 31.8398 26.6494 31.8398 26.6689C31.8398 26.6787 31.8105 26.791 31.752 27.0059C31.7422 26.9668 31.7324 26.9229 31.7227 26.874C31.7129 26.8252 31.7031 26.791 31.6934 26.7715ZM34.125 36.6592V36.6738C34.125 36.8008 34.0908 36.8643 34.0225 36.8643C33.9346 36.8643 33.9004 36.8008 33.9199 36.6738C33.9297 36.6445 33.9395 36.5957 33.9492 36.5273C33.9688 36.4688 33.9834 36.415 33.9932 36.3662C34.0029 36.3174 34.0078 36.2734 34.0078 36.2344C34.0176 36.2344 34.0176 36.1904 34.0078 36.1025C34.0078 36.0244 34.0078 35.9805 34.0078 35.9707C34.0176 36.0293 34.0322 36.1367 34.0518 36.293C34.0811 36.4492 34.1055 36.5713 34.125 36.6592ZM33.2461 36.3516C33.2461 36.3613 33.2461 36.376 33.2461 36.3955C33.2559 36.4248 33.2607 36.4443 33.2607 36.4541C33.2607 36.4834 33.2705 36.5273 33.29 36.5859C33.3096 36.6445 33.3193 36.6934 33.3193 36.7324C33.3193 36.791 33.3047 36.8447 33.2754 36.8936C33.2754 36.9131 33.2461 36.918 33.1875 36.9082C33.1484 36.8398 33.1338 36.7861 33.1436 36.7471C33.1533 36.708 33.168 36.6445 33.1875 36.5566C33.2168 36.4688 33.2363 36.4004 33.2461 36.3516ZM32.6602 26.874C32.8457 27.167 32.9043 27.7334 32.8359 28.5732C32.8066 29.0127 32.7529 29.2275 32.6748 29.2178C32.6162 29.2178 32.5674 29.0371 32.5283 28.6758C32.5381 28.5586 32.5332 28.3877 32.5137 28.1631C32.4941 27.9385 32.4893 27.7188 32.499 27.5039C32.5088 27.2891 32.5625 27.0791 32.6602 26.874ZM32.5283 29.5254C32.6064 29.4277 32.6846 29.4766 32.7627 29.6719C32.8604 29.9258 32.8408 30.0967 32.7041 30.1846C32.6455 30.2139 32.5771 30.2236 32.499 30.2139C32.4404 30.1553 32.4111 30.0967 32.4111 30.0381C32.3525 30.0967 32.2842 30.126 32.2061 30.126C32.0303 30.1064 31.9424 30.0137 31.9424 29.8477C31.9424 29.6914 32.0303 29.6133 32.2061 29.6133C32.3428 29.6133 32.4307 29.6816 32.4697 29.8184C32.5283 29.7012 32.5479 29.6035 32.5283 29.5254ZM42.3574 22.2451C42.3086 22.2939 42.2939 22.3379 42.3135 22.377C42.2744 22.4941 42.25 22.6211 42.2402 22.7578C42.2402 22.8848 42.2402 23.0361 42.2402 23.2119C42.25 23.3779 42.2549 23.5049 42.2549 23.5928V24.8379C42.2549 25.0625 42.2451 25.209 42.2256 25.2773C42.1279 25.3066 42.084 25.2676 42.0938 25.1602C42.0938 25.1504 42.0938 25.1406 42.0938 25.1309C42.0938 24.5059 42.0889 24.0371 42.0791 23.7246C42.0791 23.3633 42.0547 23.0996 42.0059 22.9336V22.8018C42.0547 22.5869 42.084 22.4746 42.0938 22.4648C42.123 22.416 42.1279 22.377 42.1084 22.3477C42.0889 22.3184 42.0693 22.2988 42.0498 22.2891C42.04 22.2793 42.0156 22.2744 41.9766 22.2744C41.9375 22.2646 41.9131 22.2598 41.9033 22.2598H41.8301C41.8301 22.3379 41.8301 22.4453 41.8301 22.582C41.8398 22.7188 41.8447 22.8262 41.8447 22.9043C41.8447 23.1191 41.835 23.2607 41.8154 23.3291C41.7959 23.3389 41.7715 23.3438 41.7422 23.3438C41.7227 23.3438 41.7129 23.334 41.7129 23.3145C41.6641 23.2754 41.6494 23.2021 41.6689 23.0947C41.6689 23.085 41.6689 23.0752 41.6689 23.0654C41.6787 23.0459 41.6836 23.0312 41.6836 23.0215V22.9189C41.6836 22.8701 41.6592 22.8213 41.6104 22.7725C41.6104 22.6553 41.5957 22.5674 41.5664 22.5088V22.333C41.5762 22.2354 41.5176 22.167 41.3906 22.1279C41.3711 22.1279 41.3516 22.1328 41.332 22.1426C41.3223 22.1523 41.3076 22.1719 41.2881 22.2012C41.2783 22.2207 41.2686 22.2354 41.2588 22.2451C41.249 22.2646 41.2344 22.2793 41.2148 22.2891C41.1953 22.2988 41.1709 22.3037 41.1416 22.3037C41.1123 22.3037 41.0928 22.3037 41.083 22.3037C41.0537 22.2939 41.0391 22.3037 41.0391 22.333H40.9512C40.9023 22.2451 40.8584 22.2012 40.8193 22.2012C40.8193 22.1621 40.8047 22.1377 40.7754 22.1279C40.7559 22.001 40.6436 21.9326 40.4385 21.9229C40.2432 21.9033 40.1064 21.8057 40.0283 21.6299C40.0088 21.5811 39.9111 21.4248 39.7354 21.1611C39.5693 20.8877 39.4814 20.6484 39.4717 20.4434C39.4619 20.375 39.4717 20.3311 39.501 20.3115C39.5107 20.3115 39.5205 20.3066 39.5303 20.2969C39.54 20.2871 39.5498 20.2725 39.5596 20.2529C39.5791 20.2236 39.5986 20.1943 39.6182 20.165C39.6475 20.0967 39.667 20.0283 39.6768 19.96C39.6865 19.8916 39.6963 19.8428 39.7061 19.8135C39.667 19.7744 39.6377 19.7354 39.6182 19.6963C39.6084 19.6768 39.5938 19.6475 39.5742 19.6084C39.5645 19.5693 39.5547 19.54 39.5449 19.5205C39.457 19.6865 39.4082 19.8477 39.3984 20.0039C39.3984 20.082 39.3984 20.1699 39.3984 20.2676C39.4082 20.3555 39.418 20.458 39.4277 20.5752C39.4375 20.6826 39.4424 20.7656 39.4424 20.8242C39.4424 20.834 39.4473 20.8535 39.457 20.8828C39.4668 20.9023 39.4668 20.917 39.457 20.9268C39.4473 20.9463 39.4326 20.9756 39.4131 21.0146C39.3936 21.0537 39.3789 21.0781 39.3691 21.0879C39.3691 21.0781 39.3545 21.0537 39.3252 21.0146C39.2959 20.9756 39.2812 20.9463 39.2812 20.9268C39.2812 20.8584 39.2861 20.7607 39.2959 20.6338C39.3154 20.4971 39.3252 20.3945 39.3252 20.3262C39.3252 20.1992 39.3008 20.0625 39.252 19.916C39.2324 19.877 39.2031 19.8379 39.1641 19.7988C39.125 19.7598 39.0957 19.7451 39.0762 19.7549C38.9883 19.7744 38.9248 19.833 38.8857 19.9307C38.8467 20.0186 38.8271 20.1357 38.8271 20.2822V20.9268C38.8369 20.9951 38.8418 21.3564 38.8418 22.0107C38.8516 22.6553 38.8662 23.2852 38.8857 23.9004C38.915 24.5156 38.9541 24.8818 39.0029 24.999C39.042 25.1064 39.0176 25.1943 38.9297 25.2627C38.8516 25.3213 38.7637 25.3164 38.666 25.248C38.5977 25.1992 38.5732 25.1211 38.5928 25.0137C38.6904 24.6816 38.7393 23.1094 38.7393 20.2969C38.7393 20.2773 38.7344 20.2383 38.7246 20.1797C38.7246 20.1211 38.7246 20.0771 38.7246 20.0479C38.7246 19.999 38.7148 19.916 38.6953 19.7988C38.6953 19.8184 38.6904 19.8525 38.6807 19.9014C38.6807 19.9502 38.6807 19.9893 38.6807 20.0186C38.6807 20.1846 38.627 20.2676 38.5195 20.2676C38.4316 20.2676 38.3779 20.1895 38.3584 20.0332C38.3584 19.9844 38.3486 19.9062 38.3291 19.7988C38.3193 19.6816 38.3096 19.5938 38.2998 19.5352C38.2217 19.5938 38.1826 19.6865 38.1826 19.8135C38.1826 19.9111 38.207 20.1797 38.2559 20.6191C38.2559 20.6387 38.2607 20.6631 38.2705 20.6924C38.29 20.7217 38.2998 20.7461 38.2998 20.7656C38.2998 20.8242 38.2852 20.873 38.2559 20.9121C38.2461 20.9219 38.2266 20.9316 38.1973 20.9414C38.168 20.9414 38.1484 20.9365 38.1387 20.9268C38.0898 20.8584 38.0654 20.8096 38.0654 20.7803C38.0654 20.751 38.0703 20.7119 38.0801 20.6631C38.0996 20.6143 38.1094 20.5801 38.1094 20.5605C38.1094 20.3945 38.0996 20.2725 38.0801 20.1943C38.0703 20.1455 38.0264 20.1113 37.9482 20.0918C37.8994 20.0918 37.8555 20.1211 37.8164 20.1797C37.7676 20.2578 37.7432 20.3311 37.7432 20.3994C37.7236 20.6045 37.7188 21.0195 37.7285 21.6445C37.748 22.2695 37.792 22.6846 37.8604 22.8896C37.8896 22.9678 37.8799 23.0459 37.8311 23.124C37.8213 23.1338 37.7871 23.1387 37.7285 23.1387C37.6797 23.1387 37.6504 23.1338 37.6406 23.124C37.5918 23.0752 37.5674 22.9971 37.5674 22.8896C37.6357 21.9326 37.6699 21.166 37.6699 20.5898C37.6699 20.502 37.6309 20.1064 37.5527 19.4033C37.5234 19.3057 37.5039 19.2422 37.4941 19.2129C37.4453 19.2129 37.4014 19.1836 37.3623 19.125H37.3477C37.2793 19.1152 37.2256 19.1348 37.1865 19.1836C37.1572 19.2324 37.1328 19.3008 37.1133 19.3887C37.0449 19.7207 37.0645 20.0723 37.1719 20.4434C37.1914 20.541 37.1865 20.624 37.1572 20.6924C37.1572 20.7021 37.1426 20.707 37.1133 20.707C37.0938 20.707 37.0693 20.707 37.04 20.707C37.0107 20.707 36.9912 20.7021 36.9814 20.6924C36.9033 20.6436 36.8789 20.5605 36.9082 20.4434C37.0352 19.9062 37.0693 19.4619 37.0107 19.1104C36.9717 18.9053 36.8789 18.7832 36.7324 18.7441C36.6738 18.8223 36.6348 18.8857 36.6152 18.9346C36.498 19.1982 36.4492 19.4277 36.4688 19.623C36.498 19.8086 36.459 19.9014 36.3516 19.9014C36.2734 19.9014 36.2344 19.8184 36.2344 19.6523C36.2344 19.6328 36.2295 19.6084 36.2197 19.5791C36.2197 19.5498 36.2197 19.5303 36.2197 19.5205C36.2197 19.4033 36.1807 19.335 36.1025 19.3154C36.0244 19.2959 35.9561 19.335 35.8975 19.4326C35.751 19.667 35.6484 19.6621 35.5898 19.418C35.5605 19.3008 35.4971 19.2471 35.3994 19.2568C35.3018 19.2666 35.2285 19.3252 35.1797 19.4326C35.1406 19.5498 35.1406 19.7207 35.1797 19.9453C35.1992 20.0723 35.1699 20.1357 35.0918 20.1357C34.9746 20.1357 34.916 20.082 34.916 19.9746C34.916 19.9453 34.9209 19.8965 34.9307 19.8281C34.9502 19.75 34.9551 19.6914 34.9453 19.6523C34.9453 19.6328 34.9404 19.5791 34.9307 19.4912C34.9307 19.4033 34.9258 19.3398 34.916 19.3008C34.9062 19.2617 34.8721 19.2227 34.8135 19.1836C34.7646 19.1445 34.6963 19.125 34.6084 19.125C34.5986 19.125 34.5889 19.125 34.5791 19.125L34.5498 19.1104C34.4521 19.3057 34.3447 19.4814 34.2275 19.6377L34.1396 19.7695C34.1885 19.8086 34.1934 19.8623 34.1543 19.9307C34.0566 20.1357 34.1006 20.3213 34.2861 20.4873C34.4229 20.624 34.4131 20.7412 34.2568 20.8389C34.0908 20.9463 34.0127 21.1074 34.0225 21.3223C34.0322 21.459 34.0127 21.6445 33.9639 21.8789L33.9199 21.7471C33.9102 21.7178 33.8906 21.6787 33.8613 21.6299C33.832 21.5713 33.8076 21.5273 33.7881 21.498C33.7686 21.5078 33.7393 21.5273 33.7002 21.5566C33.6611 21.5762 33.627 21.5957 33.5977 21.6152C33.5684 21.6348 33.5537 21.6543 33.5537 21.6738V22.2744V22.4355L33.4512 22.4502C33.4414 22.4404 33.4268 22.3916 33.4072 22.3037C33.3877 22.2158 33.3633 22.084 33.334 21.9082C33.3145 21.7324 33.2998 21.6006 33.29 21.5127C33.29 21.4736 33.2705 21.4346 33.2314 21.3955C33.1045 21.2979 33.0215 21.249 32.9824 21.249C32.9434 21.249 32.8994 21.2686 32.8506 21.3076C32.8115 21.3467 32.7822 21.3906 32.7627 21.4395C32.6357 21.752 32.6064 22.1279 32.6748 22.5674C32.6846 22.6162 32.7041 22.6846 32.7334 22.7725C32.7627 22.8506 32.7773 22.9092 32.7773 22.9482C32.7969 23.0557 32.7871 23.1436 32.748 23.2119C32.7383 23.2314 32.7041 23.2461 32.6455 23.2559C32.5869 23.2656 32.5527 23.2607 32.543 23.2412C32.4844 23.1826 32.4551 23.0947 32.4551 22.9775C32.4551 22.8018 32.4648 22.5283 32.4844 22.1572C32.4258 22.3428 32.3525 22.5332 32.2646 22.7285C32.0498 23.1875 31.9082 23.5488 31.8398 23.8125C31.8301 23.8418 31.7568 23.9004 31.6201 23.9883C31.6201 24.1934 31.6055 24.3496 31.5762 24.457C31.5957 24.4863 31.6055 24.5352 31.6055 24.6035C31.6055 24.6621 31.625 24.7305 31.6641 24.8086C31.6836 24.8477 31.7031 24.8818 31.7227 24.9111C31.7422 24.9404 31.7568 24.96 31.7666 24.9697C31.7764 24.9697 31.7861 24.9746 31.7959 24.9844C31.8057 24.9941 31.8105 25.0088 31.8105 25.0283C31.8105 25.0381 31.8105 25.0625 31.8105 25.1016C31.791 25.248 31.7666 25.3555 31.7373 25.4238C31.7373 25.4336 31.7373 25.4482 31.7373 25.4678C31.7471 25.4873 31.7568 25.502 31.7666 25.5117C31.7666 25.8535 31.7178 26.0244 31.6201 26.0244C31.5713 26.0244 31.5371 25.9609 31.5176 25.834L31.3418 26.0977C31.5371 26.1758 31.6104 26.4492 31.5615 26.918C31.5518 26.9961 31.5371 27.1084 31.5176 27.2549C31.498 27.3916 31.4834 27.4941 31.4736 27.5625C32.0791 28.0215 32.2549 28.3779 32.001 28.6318C31.9131 28.6514 31.8936 28.6807 31.9424 28.7197C31.9717 28.7393 32.0107 28.7441 32.0596 28.7344C32.04 28.793 32.0107 28.8418 31.9717 28.8809C31.9326 28.9102 31.8984 28.9297 31.8691 28.9395C31.8398 28.9395 31.8203 28.9492 31.8105 28.9688C31.8008 28.9785 31.8105 28.998 31.8398 29.0273C31.8691 29.0469 31.9277 29.0859 32.0156 29.1445C31.9863 29.2031 31.9473 29.2178 31.8984 29.1885C31.8496 29.1592 31.8057 29.1494 31.7666 29.1592C31.7275 29.1592 31.7178 29.2031 31.7373 29.291C31.8545 29.3398 31.8398 29.4668 31.6934 29.6719C31.5566 29.8672 31.542 30.0088 31.6494 30.0967C31.5713 30.0967 31.4736 30.1162 31.3564 30.1553C31.3564 30.1846 31.3564 30.2383 31.3564 30.3164C31.3662 30.3945 31.3711 30.4482 31.3711 30.4775C31.4395 30.5752 31.5127 30.6582 31.5908 30.7266C31.6494 30.5703 31.7617 30.5117 31.9277 30.5508C31.9766 30.6484 32.001 30.7705 32.001 30.917C32.0107 30.9268 32.0254 30.9316 32.0449 30.9316C32.0645 30.9316 32.0791 30.9365 32.0889 30.9463C32.1963 31.0049 32.2549 31.0928 32.2646 31.21C32.2842 31.3174 32.2451 31.4053 32.1475 31.4736C32.0596 31.542 32.0059 31.6055 31.9863 31.6641C31.9863 31.6934 31.9961 31.7471 32.0156 31.8252C32.0254 32.0205 32.0205 32.2012 32.001 32.3672C32.2744 32.5039 32.5381 32.6846 32.792 32.9092C33.2119 33.29 33.5195 33.5342 33.7148 33.6416C33.7344 33.6611 33.7734 33.7783 33.832 33.9932C34.1152 33.9346 34.4033 33.9102 34.6963 33.9199C35.8584 33.9785 36.8838 33.8906 37.7725 33.6562C37.9971 33.5391 38.2217 33.4512 38.4463 33.3926C38.6123 33.0508 38.6807 32.8799 38.6514 32.8799C38.5244 32.8896 38.3877 32.9629 38.2412 33.0996C38.0654 33.2461 37.958 33.29 37.9189 33.2314C37.8701 33.1533 37.9336 33.041 38.1094 32.8945C38.2168 32.8066 38.3193 32.7334 38.417 32.6748C38.6123 32.5576 38.7832 32.4111 38.9297 32.2354C39.3203 31.7666 39.7549 31.4248 40.2334 31.21C40.1846 30.9561 40.2334 30.707 40.3799 30.4629C40.5264 30.209 40.7314 30.0283 40.9951 29.9209C41.3955 29.7549 41.7812 29.7939 42.1523 30.0381C42.5234 30.2822 42.7041 30.624 42.6943 31.0635C42.6943 31.1611 42.6797 31.2539 42.6504 31.3418C42.5723 31.5957 42.5625 31.835 42.6211 32.0596C42.6309 32.0986 42.6357 32.1572 42.6357 32.2354C42.6357 32.3623 42.582 32.4258 42.4746 32.4258C42.3672 32.4258 42.3135 32.3623 42.3135 32.2354C42.3135 32.2061 42.3135 32.167 42.3135 32.1182C42.3232 32.0693 42.3281 32.0303 42.3281 32.001C42.3281 31.8252 42.3232 31.7227 42.3135 31.6934C42.2939 31.5957 42.2402 31.5371 42.1523 31.5176C42.0742 31.498 42.0059 31.5273 41.9473 31.6055C41.8594 31.7227 41.791 31.8594 41.7422 32.0156C41.6543 32.2988 41.6494 32.6895 41.7275 33.1875C41.7471 33.3047 41.7568 33.3877 41.7568 33.4365C41.7764 33.5928 41.7227 33.6807 41.5957 33.7002C41.5469 33.71 41.5029 33.6904 41.4639 33.6416C41.4248 33.5928 41.4053 33.5293 41.4053 33.4512C41.4053 33.3926 41.4053 33.3145 41.4053 33.2168C41.415 33.1191 41.4199 33.0557 41.4199 33.0264V32.4844C41.4199 32.4746 41.415 32.4648 41.4053 32.4551C41.4053 32.4453 41.4053 32.4355 41.4053 32.4258C41.2295 32.7285 41.0293 32.9971 40.8047 33.2314C40.6289 33.4072 40.4434 33.6172 40.248 33.8613C40.1895 34.1543 39.8916 34.457 39.3545 34.7695L39.3984 34.8135C39.2129 35.1748 39.0225 35.4629 38.8271 35.6777C38.6611 35.8535 38.6074 36.1465 38.666 36.5566C38.6758 36.5859 38.6953 36.6592 38.7246 36.7764C38.7539 36.9033 38.7686 37.001 38.7686 37.0693C38.7686 37.1963 38.7246 37.2646 38.6367 37.2744C38.5781 37.2842 38.5342 37.2646 38.5049 37.2158C38.4756 37.1768 38.4609 37.1279 38.4609 37.0693C38.4609 37.0596 38.4756 36.8496 38.5049 36.4395C38.5049 36.4199 38.5098 36.3857 38.5195 36.3369C38.5293 36.2881 38.5342 36.249 38.5342 36.2197C38.5537 36.083 38.5049 35.9951 38.3877 35.9561C38.2998 35.917 38.2119 35.9512 38.124 36.0586C38.0557 36.1465 38.002 36.1855 37.9629 36.1758C37.9141 36.1562 37.8799 36.0928 37.8604 35.9854C37.8604 35.9365 37.8506 35.8682 37.8311 35.7803C37.8213 35.6826 37.8115 35.6143 37.8018 35.5752C37.8018 35.5557 37.7871 35.5166 37.7578 35.458H37.6992C37.6504 35.5068 37.6113 35.541 37.582 35.5605C37.4648 35.6582 37.3818 35.6924 37.333 35.6631C37.2061 35.8291 37.1426 36.0342 37.1426 36.2783C37.1426 36.7471 37.1328 37.0156 37.1133 37.084C37.1035 37.1035 37.0889 37.123 37.0693 37.1426C37.0596 37.1621 37.0547 37.1816 37.0547 37.2012C37.0449 37.2012 37.0303 37.2012 37.0107 37.2012C37.001 37.2012 36.9961 37.1963 36.9961 37.1865C36.9863 37.167 36.9766 37.1377 36.9668 37.0986C36.9668 37.0596 36.957 37.0303 36.9375 37.0107C36.9277 36.9912 36.9033 36.9814 36.8643 36.9814C36.8154 36.9814 36.7666 37.0498 36.7178 37.1865C36.6201 37.46 36.6201 37.7334 36.7178 38.0068C36.7373 38.0361 36.7568 38.0996 36.7764 38.1973C36.8154 38.3926 36.7666 38.4951 36.6299 38.5049C36.5908 38.5146 36.5615 38.5146 36.542 38.5049C36.5225 38.4951 36.5078 38.4756 36.498 38.4463C36.4883 38.4268 36.4834 38.4072 36.4834 38.3877C36.4834 38.3682 36.4834 38.3389 36.4834 38.2998C36.4834 38.2705 36.4834 38.251 36.4834 38.2412C36.5225 37.3623 36.4688 36.6836 36.3223 36.2051C36.3125 36.1953 36.3076 36.1807 36.3076 36.1611C36.3076 36.1514 36.3076 36.1416 36.3076 36.1318C36.2979 36.1123 36.2881 36.0879 36.2783 36.0586C36.2686 36.0293 36.2588 36.0049 36.249 35.9854C36.249 35.9561 36.2393 35.9365 36.2197 35.9268C36.2002 35.9072 36.1758 35.9023 36.1465 35.9121C36.0879 35.9316 36.0586 36.0195 36.0586 36.1758C36.0586 36.3125 36.0488 36.3955 36.0293 36.4248C35.9609 36.3955 35.9268 36.3125 35.9268 36.1758V35.7363C35.9072 35.7363 35.8828 35.7314 35.8535 35.7217C35.8242 35.7119 35.8047 35.707 35.7949 35.707C35.7852 35.707 35.7803 35.707 35.7803 35.707C35.7803 35.6973 35.7754 35.6924 35.7656 35.6924L35.6338 35.7363C35.5947 35.7559 35.502 35.79 35.3555 35.8389C35.1992 35.8779 35.1211 35.873 35.1211 35.8242C35.1211 35.7852 35.1602 35.7363 35.2383 35.6777L35.2236 35.6631C35.2236 35.6533 35.2236 35.6436 35.2236 35.6338L35.209 35.6191C35.1992 35.6191 35.1895 35.6191 35.1797 35.6191H34.7842C34.833 35.6582 34.9062 35.7266 35.0039 35.8242C35.0234 35.8438 35.0576 35.8779 35.1064 35.9268C35.165 35.9756 35.209 36.0146 35.2383 36.0439C35.3652 36.1904 35.3945 36.2783 35.3262 36.3076C35.248 36.3271 35.1602 36.3027 35.0625 36.2344C35.0527 36.2246 34.9307 36.1611 34.6963 36.0439V36.6445V36.7617C34.7061 36.8301 34.7061 36.8643 34.6963 36.8643C34.6963 36.9229 34.667 36.9521 34.6084 36.9521C34.5889 36.9521 34.5693 36.918 34.5498 36.8496C34.5498 36.8398 34.5449 36.8252 34.5352 36.8057C34.5352 36.7861 34.5352 36.7715 34.5352 36.7617C34.5254 36.7422 34.5205 36.708 34.5205 36.6592C34.5205 36.6104 34.5156 36.5762 34.5059 36.5566C34.4961 36.5371 34.4717 36.5273 34.4326 36.5273C34.3545 36.5371 34.3154 36.6299 34.3154 36.8057C34.3154 36.9229 34.3252 37.0986 34.3447 37.333C34.3447 37.4697 34.3057 37.5381 34.2275 37.5381C34.1494 37.5479 34.1152 37.499 34.125 37.3916C34.125 37.3721 34.125 37.3574 34.125 37.3477V37.0693C34.1543 37.001 34.1641 36.9424 34.1543 36.8936C34.1836 36.6885 34.1885 36.376 34.1689 35.9561C34.1689 35.8779 34.1641 35.8193 34.1543 35.7803C34.1348 35.7803 34.1104 35.7754 34.0811 35.7656C34.0615 35.7461 34.0469 35.7314 34.0371 35.7217C34.0371 35.7314 34.0273 35.7461 34.0078 35.7656V35.707C33.9883 35.6973 33.9541 35.6826 33.9053 35.6631C33.8564 35.6436 33.8223 35.6289 33.8027 35.6191C33.793 35.6777 33.8125 35.8291 33.8613 36.0732C33.8613 36.1025 33.8564 36.1416 33.8467 36.1904C33.8467 36.2393 33.8467 36.2734 33.8467 36.293L33.8027 36.3369C33.793 36.3271 33.7783 36.3076 33.7588 36.2783C33.749 36.2588 33.7393 36.2441 33.7295 36.2344L33.6855 36.0586C33.7051 36.0293 33.7051 35.9805 33.6855 35.9121C33.6855 35.8926 33.6855 35.873 33.6855 35.8535C33.6953 35.834 33.7002 35.8145 33.7002 35.7949V35.751C33.6709 35.8389 33.6562 35.9219 33.6562 36V37.8896C33.6562 37.9482 33.666 38.0264 33.6855 38.124C33.7051 38.2314 33.6855 38.2998 33.627 38.3291C33.5684 38.3682 33.5146 38.373 33.4658 38.3438C33.417 38.3145 33.4023 38.2412 33.4219 38.124C33.5391 37.626 33.5928 37.1328 33.583 36.6445C33.583 36.5859 33.5781 36.4932 33.5684 36.3662C33.5586 36.249 33.5488 36.1611 33.5391 36.1025C33.5391 36.083 33.5293 36.0537 33.5098 36.0146C33.5098 36.0049 33.5049 36 33.4951 36C33.4951 35.9902 33.4951 35.9805 33.4951 35.9707C33.4365 35.873 33.3828 35.873 33.334 35.9707C33.2754 36.0781 33.2412 36.1416 33.2314 36.1611C33.2314 36.1514 33.2266 36.1318 33.2168 36.1025C33.2168 36.0732 33.2168 36.0537 33.2168 36.0439C33.1875 35.8877 33.1729 35.8047 33.1729 35.7949C33.1533 35.7266 33.1094 35.6924 33.041 35.6924C33.002 35.6924 32.9727 35.7266 32.9531 35.7949C32.9141 35.9219 32.8848 36.0586 32.8652 36.2051C32.8262 36.6348 32.8555 37.1182 32.9531 37.6553C32.9727 37.7139 32.9531 37.7725 32.8945 37.8311C32.875 37.8506 32.8457 37.8604 32.8066 37.8604C32.7773 37.8604 32.7529 37.8555 32.7334 37.8457C32.6846 37.7969 32.6602 37.7334 32.6602 37.6553C32.6699 37.5967 32.6846 37.4893 32.7041 37.333C32.7334 37.1865 32.7529 37.0693 32.7627 36.9814C32.7822 36.3662 32.7871 35.9707 32.7773 35.7949C32.6797 35.7559 32.6016 35.7021 32.543 35.6338V35.6191C32.5332 35.6191 32.5283 35.6191 32.5283 35.6191L32.499 35.6338C32.4209 35.6436 32.3721 35.6143 32.3525 35.5459C32.3525 35.5752 32.3574 35.6191 32.3672 35.6777C32.377 35.7266 32.3818 35.7656 32.3818 35.7949C32.3916 35.8438 32.416 35.917 32.4551 36.0146C32.5039 36.1221 32.499 36.2002 32.4404 36.249C32.3721 36.2979 32.3135 36.3027 32.2646 36.2637C32.1865 36.2051 32.1719 36.127 32.2207 36.0293C32.2891 35.9121 32.3232 35.7607 32.3232 35.5752C32.3232 35.5654 32.3232 35.5557 32.3232 35.5459C32.333 35.5264 32.3379 35.5117 32.3379 35.502C32.3379 35.4922 32.333 35.4775 32.3232 35.458C32.3232 35.4287 32.3232 35.4092 32.3232 35.3994C32.3232 35.3896 32.3232 35.3799 32.3232 35.3701C32.333 35.3604 32.3379 35.3506 32.3379 35.3408L32.3232 35.3262C32.1865 35.1309 32.0303 34.9648 31.8545 34.8281C31.5127 34.5742 31.2246 34.2666 30.9902 33.9053V34.0664C30.9805 34.0664 30.9658 34.0713 30.9463 34.0811C30.9268 34.0811 30.917 34.0811 30.917 34.0811C30.9463 34.2861 30.9805 34.5986 31.0195 35.0186C31.0684 35.4385 31.1025 35.7559 31.1221 35.9707C31.1221 36 31.1367 36.0537 31.166 36.1318C31.1953 36.2197 31.21 36.2832 31.21 36.3223C31.21 36.4785 31.1807 36.5811 31.1221 36.6299C31.0244 36.6982 30.9121 36.7129 30.7852 36.6738C30.6582 36.6445 30.6045 36.5518 30.624 36.3955C30.6338 36.3174 30.6582 36.2002 30.6973 36.0439C30.7363 35.8877 30.7607 35.7705 30.7705 35.6924C30.8682 35.1162 30.9023 34.4521 30.873 33.7002C30.5703 33.1729 30.4922 32.7578 30.6387 32.4551C30.6582 32.416 30.6973 32.3672 30.7559 32.3086C30.7559 32.2891 30.751 32.2598 30.7412 32.2207C30.7412 32.1816 30.7412 32.1572 30.7412 32.1475C30.7217 32.0498 30.6973 31.9814 30.668 31.9424C30.5996 31.874 30.5508 31.8301 30.5215 31.8105V33.2168C30.5117 33.2656 30.5166 33.3584 30.5361 33.4951C30.5557 33.6318 30.5508 33.7246 30.5215 33.7734C30.4922 33.7734 30.4775 33.7783 30.4775 33.7881C30.458 33.7979 30.4238 33.8076 30.375 33.8174C30.3359 33.8271 30.3066 33.832 30.2871 33.832C30.1699 33.7832 30.1211 33.6758 30.1406 33.5098C30.1406 33.3926 30.1553 33.1484 30.1846 32.7773C30.2139 32.4062 30.2236 32.123 30.2139 31.9277V31.9424L30.1992 31.957C30.1309 32.1621 30.0918 32.3623 30.082 32.5576C30.0625 33.1436 30.0918 33.5586 30.1699 33.8027C30.1895 33.8906 30.1699 33.9639 30.1113 34.0225C30.0918 34.0322 30.0576 34.0371 30.0088 34.0371C29.9697 34.0371 29.9404 34.0322 29.9209 34.0225C29.8721 33.9736 29.8574 33.9004 29.877 33.8027C30.043 32.9238 30.0283 32.2305 29.833 31.7227C29.833 32.0352 29.8379 32.2842 29.8477 32.4697C29.6816 32.665 29.5645 32.6309 29.4961 32.3672C29.4277 32.5723 29.3936 32.8896 29.3936 33.3193C29.3643 34.6963 29.3496 36.0781 29.3496 37.4648C29.3496 37.5625 29.3643 37.7041 29.3936 37.8896C29.4229 38.0752 29.4424 38.1924 29.4521 38.2412C29.4521 38.2998 29.4326 38.3682 29.3936 38.4463C29.3838 38.4561 29.3643 38.4609 29.335 38.4609C29.3057 38.4707 29.2861 38.4707 29.2764 38.4609C29.2275 38.3633 29.2031 38.2949 29.2031 38.2559C29.2129 38.1582 29.2275 37.9629 29.2471 37.6699C29.2764 37.3867 29.2959 37.1621 29.3057 36.9961C29.3154 36.5078 29.3203 35.8145 29.3203 34.916C29.3301 34.0078 29.335 33.4121 29.335 33.1289C29.335 32.8164 29.3252 32.5869 29.3057 32.4404C29.2959 32.3721 29.2617 32.2695 29.2031 32.1328C29.2031 32.2598 29.1934 32.3477 29.1738 32.3965C29.1641 32.4258 29.1445 32.4453 29.1152 32.4551C29.0859 32.4551 29.0664 32.4453 29.0566 32.4258C29.0078 32.2988 28.9883 32.1914 28.998 32.1035C29.0664 31.4688 29.0908 30.7412 29.0713 29.9209H29.0566C29.0371 29.8525 29.0273 29.7109 29.0273 29.4961V28.7344C29.0078 28.627 28.9883 28.5635 28.9688 28.5439C28.8906 28.4658 28.8467 28.3535 28.8369 28.207C28.8271 28.0605 28.8516 27.9287 28.9102 27.8115C28.9688 27.7139 29.0127 27.6455 29.042 27.6064C29.042 27.3818 29.0176 27.1914 28.9688 27.0352C28.9688 26.9668 28.9541 26.918 28.9248 26.8887C28.9248 26.8496 28.9102 26.8252 28.8809 26.8154C28.8613 26.8057 28.8271 26.7764 28.7783 26.7275C28.7588 26.7471 28.7393 26.7568 28.7197 26.7568C28.7002 26.7568 28.6611 26.7275 28.6025 26.6689L28.5879 26.6836H28.5732V26.6543C28.5635 26.6348 28.5586 26.6201 28.5586 26.6104C28.5 26.5029 28.4707 26.376 28.4707 26.2295C28.4707 25.9951 28.5244 25.8779 28.6318 25.8779L28.7197 25.9219C28.7686 25.8242 28.832 25.6875 28.9102 25.5117C28.998 25.3262 29.0664 25.1895 29.1152 25.1016C29.1641 25.0137 29.2324 24.9355 29.3203 24.8672C29.4082 24.7891 29.5107 24.75 29.6279 24.75C29.6865 24.75 29.7354 24.7354 29.7744 24.7061V24.6914V24.6621C29.7744 24.6426 29.7646 24.6133 29.7451 24.5742C29.7256 24.3496 29.7061 24.2178 29.6865 24.1787C29.6865 24.1592 29.6816 24.1299 29.6719 24.0908C29.6719 24.042 29.6719 24.0078 29.6719 23.9883C29.6816 23.9688 29.6865 23.9395 29.6865 23.9004C29.6865 23.8613 29.6914 23.832 29.7012 23.8125C29.7109 23.7246 29.7695 23.583 29.877 23.3877L29.8916 23.373H29.9062C29.9551 23.3242 30.0283 23.2607 30.126 23.1826L30.1113 23.0947C30.0039 23.1436 29.9014 23.2607 29.8037 23.4463C29.6768 23.6416 29.5889 23.7148 29.54 23.666C29.4717 23.5977 29.4912 23.4707 29.5986 23.2852C29.6963 23.1484 29.7695 23.0508 29.8184 22.9922C29.9746 22.8066 30.0918 22.6064 30.1699 22.3916C30.3848 21.835 30.6729 21.3809 31.0342 21.0293C30.9756 21.0488 30.9268 21.0781 30.8877 21.1172C30.8096 21.1953 30.7412 21.2393 30.6826 21.249C30.6045 21.2686 30.5361 21.249 30.4775 21.1904C30.4287 21.1416 30.4238 21.0781 30.4629 21C30.4922 20.9414 30.5459 20.9023 30.624 20.8828C30.6436 20.873 30.6777 20.8779 30.7266 20.8975C30.7754 20.9072 30.8096 20.9121 30.8291 20.9121C31.0342 20.9316 31.166 20.8535 31.2246 20.6777C31.0781 20.6484 31 20.6289 30.9902 20.6191C30.8926 20.5605 30.8438 20.4971 30.8438 20.4287C30.8438 20.3408 30.8926 20.2773 30.9902 20.2383C31 20.2285 31.0146 20.2188 31.0342 20.209C31.0635 20.1992 31.083 20.1943 31.0928 20.1943C31.1123 20.1846 31.1318 20.1748 31.1514 20.165C31.1709 20.1455 31.1807 20.126 31.1807 20.1064C31.1904 20.0869 31.1904 20.0674 31.1807 20.0479C31.1611 19.9795 31.0879 19.9209 30.9609 19.8721L30.4336 19.7842C30.3262 19.7549 30.2676 19.7354 30.2578 19.7256C30.1895 19.6768 30.1553 19.6133 30.1553 19.5352C30.1553 19.457 30.2041 19.4082 30.3018 19.3887C30.3799 19.3691 30.4434 19.3936 30.4922 19.4619C30.6094 19.6377 30.8486 19.7451 31.21 19.7842C31.3271 19.7939 31.4102 19.7646 31.459 19.6963C31.5078 19.6182 31.5176 19.5254 31.4883 19.418C31.4883 19.4082 31.498 19.3545 31.5176 19.2568C31.5273 19.2666 31.5518 19.2812 31.5908 19.3008C31.6299 19.3105 31.6543 19.3203 31.6641 19.3301C31.6738 19.3691 31.6982 19.4082 31.7373 19.4473L31.752 19.4326C31.7617 19.4229 31.7715 19.418 31.7812 19.418C31.9375 19.291 32.084 19.1201 32.2207 18.9053C32.5137 18.4365 32.8701 18.0605 33.29 17.7773C33.7197 17.4844 34.0859 17.3721 34.3887 17.4404C34.4082 17.04 34.584 16.708 34.916 16.4443C35.248 16.1807 35.6582 16.1221 36.1465 16.2686L36.2051 16.2979C36.2148 16.2979 36.2344 16.3027 36.2637 16.3125C36.293 16.3223 36.3174 16.3271 36.3369 16.3271C36.4736 16.4346 36.625 16.5029 36.791 16.5322V16.5176C37.0254 16.6445 37.25 16.7275 37.4648 16.7666C37.4648 16.7568 37.46 16.7422 37.4502 16.7227C37.4502 16.6934 37.4502 16.6738 37.4502 16.6641C37.4502 16.6543 37.4502 16.6445 37.4502 16.6348C37.46 16.6152 37.4648 16.6006 37.4648 16.5908C37.4453 16.5811 37.416 16.5713 37.377 16.5615C37.3379 16.5518 37.3086 16.542 37.2891 16.5322C37.2793 16.5322 37.2549 16.5322 37.2158 16.5322C37.1768 16.5225 37.1475 16.5127 37.1279 16.5029C37.1182 16.4834 37.1182 16.4492 37.1279 16.4004H37.3037C37.3232 16.4297 37.3477 16.4395 37.377 16.4297C37.3965 16.4297 37.4258 16.4346 37.4648 16.4443C37.5137 16.4443 37.5479 16.4443 37.5674 16.4443C37.6064 16.415 37.6553 16.4004 37.7139 16.4004C37.7725 16.4004 37.8311 16.4297 37.8896 16.4883C37.9189 16.4883 37.9434 16.4834 37.9629 16.4736C38.1191 16.5029 38.2705 16.5029 38.417 16.4736C38.5049 16.5029 38.5879 16.498 38.666 16.459C38.7148 16.459 38.7832 16.4541 38.8711 16.4443C38.959 16.4346 39.0225 16.4297 39.0615 16.4297C39.1201 16.4492 39.1689 16.4395 39.208 16.4004C39.2666 16.4004 39.3594 16.4004 39.4863 16.4004C39.6133 16.3906 39.7109 16.3857 39.7793 16.3857C39.7891 16.3857 39.8086 16.3906 39.8379 16.4004L39.9258 16.4443C39.9355 16.4541 39.9453 16.4688 39.9551 16.4883C39.9648 16.5078 39.9697 16.5176 39.9697 16.5176C39.9795 16.5957 39.9404 16.6543 39.8525 16.6934C39.7744 16.7227 39.7305 16.7422 39.7207 16.752C39.75 16.8105 39.8477 16.8398 40.0137 16.8398C40.3848 16.8496 40.6729 16.9814 40.8779 17.2354C41.0928 17.4893 41.1709 17.7822 41.1123 18.1143C41.1514 18.1436 41.1953 18.1582 41.2441 18.1582C41.4102 18.1484 41.5469 18.2168 41.6543 18.3633C41.7715 18.5098 41.8887 18.7246 42.0059 19.0078C42.1328 19.291 42.25 19.5059 42.3574 19.6523C42.3672 19.7012 42.3672 19.7451 42.3574 19.7842C42.3574 19.8135 42.3477 19.8623 42.3281 19.9307C42.3086 19.999 42.2988 20.0479 42.2988 20.0771C42.2402 20.0576 42.1963 20.0527 42.167 20.0625C42.1475 20.0723 42.1182 20.0967 42.0791 20.1357C42.04 20.1748 42.0107 20.1992 41.9912 20.209V20.2236C42.0889 20.3115 42.2109 20.5264 42.3574 20.8682C42.5137 21.2002 42.6504 21.4443 42.7676 21.6006C42.7773 21.6494 42.7773 21.6934 42.7676 21.7324C42.7676 21.7617 42.7578 21.8105 42.7383 21.8789C42.7188 21.9473 42.709 21.9961 42.709 22.0254C42.6504 22.0059 42.6064 22.001 42.5771 22.0107C42.5576 22.0205 42.5283 22.0449 42.4893 22.084C42.4502 22.123 42.4209 22.1475 42.4014 22.1572C42.3721 22.167 42.3574 22.1963 42.3574 22.2451ZM29.3203 26.918C29.2129 26.9375 29.1592 26.9668 29.1592 27.0059C29.1494 27.0352 29.1543 27.0693 29.1738 27.1084C29.1836 27.1279 29.2031 27.1963 29.2324 27.3135C29.2715 27.2158 29.3008 27.084 29.3203 26.918ZM29.4375 31.5908C29.4375 31.5322 29.4375 31.4346 29.4375 31.2979C29.4473 31.1611 29.4521 31.0586 29.4521 30.9902H29.4375C29.3691 31 29.3057 30.9756 29.2471 30.917C29.1982 30.8584 29.1641 30.79 29.1445 30.7119V31.6055C29.1445 31.625 29.1445 31.6445 29.1445 31.6641C29.1543 31.6836 29.1592 31.7031 29.1592 31.7227C29.208 31.6348 29.2764 31.5859 29.3643 31.5762C29.374 31.5762 29.3838 31.5811 29.3936 31.5908C29.4131 31.5908 29.4277 31.5908 29.4375 31.5908ZM29.4668 30.4336C29.4863 30.0625 29.4814 29.8232 29.4521 29.7158C29.4912 29.5693 29.4863 29.3252 29.4375 28.9834C29.3887 28.6318 29.3789 28.3975 29.4082 28.2803C29.3887 28.3193 29.3691 28.3682 29.3496 28.4268C29.2715 28.7686 29.2178 29.0859 29.1885 29.3789V29.7744C29.1885 29.8525 29.1787 29.9014 29.1592 29.9209C29.1592 29.9893 29.1543 30.0967 29.1445 30.2432C29.1445 30.3896 29.1445 30.502 29.1445 30.5801C29.1738 30.4629 29.2422 30.4043 29.3496 30.4043C29.3984 30.4043 29.4375 30.4141 29.4668 30.4336ZM30.126 30.8877C30.1748 30.5166 30.1602 30.2773 30.082 30.1699C30.0527 30.1309 30.0283 30.1357 30.0088 30.1846C29.9502 30.4873 29.9062 30.7754 29.877 31.0488C29.9551 30.9902 30.0137 30.9561 30.0527 30.9463C30.0625 30.9365 30.0723 30.9268 30.082 30.917C30.1016 30.9072 30.1162 30.8975 30.126 30.8877ZM30.3018 29.9648C30.2627 30.0137 30.248 30.043 30.2578 30.0527C30.2773 30.0625 30.3018 30.0527 30.3311 30.0234V29.9209C30.3115 29.9404 30.3018 29.9551 30.3018 29.9648ZM32.6016 35.0918H32.5869C32.5869 35.1211 32.5918 35.1602 32.6016 35.209C32.6113 35.2578 32.6211 35.2969 32.6309 35.3262C32.6699 35.3848 32.7041 35.4287 32.7334 35.458C32.7334 35.4385 32.7285 35.4092 32.7188 35.3701C32.709 35.3311 32.7041 35.3018 32.7041 35.2822C32.6748 35.1943 32.6553 35.1455 32.6455 35.1357L32.6016 35.0918ZM31.8105 28.749C31.8203 28.71 31.8008 28.6904 31.752 28.6904C31.7129 28.6904 31.6934 28.71 31.6934 28.749C31.6836 28.7881 31.6982 28.8076 31.7373 28.8076C31.7861 28.8076 31.8105 28.7881 31.8105 28.749ZM31.2832 30.3457V30.1846C31.2441 30.2041 31.2197 30.2188 31.21 30.2285C31.21 30.248 31.2197 30.2676 31.2393 30.2871C31.2588 30.3066 31.2734 30.3262 31.2832 30.3457ZM34.8428 17.2354C34.9307 17.2354 34.9746 17.1914 34.9746 17.1035C34.8867 17.1035 34.8428 17.1475 34.8428 17.2354ZM34.9746 17.1035C34.9941 17.1035 35.0186 17.0986 35.0479 17.0889C35.0869 17.0791 35.1113 17.0742 35.1211 17.0742L35.1064 17.0449C35.0576 17.0352 35.0137 17.0547 34.9746 17.1035ZM35.2236 16.957L35.2529 16.9424V16.9277H35.2236V16.957ZM35.8828 16.5176C35.8926 16.5176 35.9072 16.5176 35.9268 16.5176C35.9463 16.5176 35.9609 16.5127 35.9707 16.5029C35.9707 16.4932 35.9658 16.4883 35.9561 16.4883C35.9561 16.4883 35.9561 16.4834 35.9561 16.4736C35.9463 16.4834 35.9316 16.4932 35.9121 16.5029C35.9023 16.5127 35.8926 16.5176 35.8828 16.5176C35.834 16.5176 35.8047 16.5371 35.7949 16.5762C35.7949 16.6055 35.8047 16.6201 35.8242 16.6201C35.8633 16.6201 35.8828 16.5859 35.8828 16.5176ZM32.5869 31.3711C32.6455 31.3613 32.6895 31.376 32.7188 31.415C32.7578 31.4443 32.7725 31.4883 32.7627 31.5469C32.7529 31.5762 32.7139 31.6396 32.6455 31.7373H32.5576C32.5479 31.7178 32.5283 31.6982 32.499 31.6787C32.4795 31.6494 32.46 31.625 32.4404 31.6055C32.4307 31.5762 32.4258 31.5518 32.4258 31.5322C32.4258 31.4541 32.4795 31.4004 32.5869 31.3711ZM31.7666 30.3604C31.7373 30.3896 31.7129 30.4043 31.6934 30.4043C31.6738 30.4043 31.6494 30.3896 31.6201 30.3604C31.5908 30.3311 31.5762 30.3066 31.5762 30.2871C31.5762 30.2773 31.6152 30.2236 31.6934 30.126C31.7715 30.2236 31.8105 30.2773 31.8105 30.2871C31.8105 30.3066 31.7959 30.3311 31.7666 30.3604ZM36.3809 20.5752C36.4688 20.4873 36.5176 20.4434 36.5273 20.4434L36.7031 20.5312C36.7031 20.541 36.7031 20.5557 36.7031 20.5752C36.7129 20.585 36.7178 20.5947 36.7178 20.6045C36.6299 20.6729 36.5664 20.707 36.5273 20.707C36.5176 20.707 36.4688 20.6631 36.3809 20.5752ZM39.6182 22.5234C39.6279 22.4844 39.6621 22.4551 39.7207 22.4355C39.7695 22.4355 39.8037 22.46 39.8232 22.5088C39.833 22.5283 39.8428 22.5625 39.8525 22.6113C39.8623 22.6504 39.8721 22.6797 39.8818 22.6992C39.8525 22.6895 39.8135 22.6797 39.7646 22.6699C39.7256 22.6602 39.6963 22.6504 39.6768 22.6406C39.6182 22.6113 39.5986 22.5723 39.6182 22.5234Z" fill="white"/>
</svg>
